<svg width="33" height="22" viewBox="0 0 33 22" fill="none" xmlns="http://www.w3.org/2000/svg">
<path fill-rule="evenodd" clip-rule="evenodd" d="M17.3459 2.5H2C1.17157 2.5 0.5 3.17157 0.5 4C0.5 4.82843 1.17157 5.5 2 5.5H16.1998C16.4189 4.42058 16.8118 3.40918 17.3459 2.5ZM16.458 10.5H2C1.17157 10.5 0.5 11.1716 0.5 12C0.5 12.8284 1.17157 13.5 2 13.5H18.0218C17.3402 12.6178 16.8057 11.6039 16.458 10.5ZM2 18.5C1.17157 18.5 0.5 19.1716 0.5 20C0.5 20.8284 1.17157 21.5 2 21.5H29C29.8284 21.5 30.5 20.8284 30.5 20C30.5 19.1716 29.8284 18.5 29 18.5H2Z" fill="#33363F"/>
<path d="M25.5 13L25.5 2M20 7.5H31" stroke="#222222" stroke-width="3" stroke-linecap="round" stroke-linejoin="round"/>
</svg>
