<svg width="12" height="23" viewBox="0 0 12 23" fill="none" xmlns="http://www.w3.org/2000/svg">
<path d="M10.6108 6.63636V10.0455H0.511364V6.63636H10.6108ZM2.82315 23V5.45383C2.82315 4.26775 3.05398 3.28409 3.51562 2.50284C3.98438 1.72159 4.62358 1.13565 5.43324 0.745027C6.2429 0.354402 7.16264 0.159089 8.19247 0.159089C8.88849 0.159089 9.52415 0.212357 10.0994 0.318892C10.6818 0.425426 11.1151 0.521306 11.3991 0.606534L10.5895 4.01562C10.4119 3.95881 10.1918 3.90554 9.92898 3.85582C9.6733 3.80611 9.41051 3.78125 9.14062 3.78125C8.47301 3.78125 8.00781 3.9375 7.74503 4.25C7.48224 4.5554 7.35085 4.98509 7.35085 5.53906V23H2.82315Z" fill="#878787"/>
</svg>
