<svg width="21" height="24" viewBox="0 0 21 24" fill="none" xmlns="http://www.w3.org/2000/svg">
<path d="M15.3636 8.23438C15.2145 7.71591 15.005 7.25781 14.7351 6.86008C14.4652 6.45526 14.1349 6.11435 13.7443 5.83736C13.3608 5.55327 12.9205 5.33665 12.4233 5.1875C11.9332 5.03835 11.3899 4.96378 10.7933 4.96378C9.67827 4.96378 8.69815 5.24077 7.85298 5.79474C7.01491 6.34872 6.36151 7.15483 5.89276 8.21307C5.42401 9.2642 5.18963 10.5497 5.18963 12.0696C5.18963 13.5895 5.42045 14.8821 5.8821 15.9474C6.34375 17.0128 6.99716 17.826 7.84233 18.3871C8.6875 18.9411 9.68537 19.218 10.8359 19.218C11.88 19.218 12.7713 19.0334 13.5099 18.6641C14.2557 18.2876 14.8239 17.7585 15.2145 17.0767C15.6122 16.3949 15.8111 15.5888 15.8111 14.6584L16.7486 14.7969H11.1236V11.3239H20.2536V14.0724C20.2536 15.9901 19.8487 17.6378 19.0391 19.0156C18.2294 20.3864 17.1143 21.4446 15.6939 22.1903C14.2734 22.929 12.647 23.2983 10.8146 23.2983C8.76918 23.2983 6.9723 22.8473 5.42401 21.9453C3.87571 21.0362 2.66832 19.7472 1.80185 18.0781C0.942472 16.402 0.512784 14.4134 0.512784 12.1122C0.512784 10.3437 0.768466 8.76705 1.27983 7.3821C1.7983 5.99006 2.52273 4.81108 3.45312 3.84517C4.38352 2.87926 5.46662 2.14418 6.70241 1.63991C7.93821 1.13565 9.27699 0.883522 10.7188 0.883522C11.9545 0.883522 13.1051 1.06463 14.1705 1.42685C15.2358 1.78196 16.1804 2.28622 17.0043 2.93963C17.8352 3.59304 18.5135 4.37074 19.0391 5.27273C19.5646 6.16761 19.902 7.15483 20.0511 8.23438H15.3636Z" fill="#878787"/>
</svg>
