<svg width="196" height="151" viewBox="0 0 196 151" fill="none" xmlns="http://www.w3.org/2000/svg">
<path d="M40.8333 68.8333H155.167V130.167C155.167 132.052 155.167 132.995 154.581 133.581C153.995 134.167 153.052 134.167 151.167 134.167H44.8333C42.9476 134.167 42.0048 134.167 41.419 133.581C40.8333 132.995 40.8333 132.052 40.8333 130.167V68.8333Z" fill="#E1A20D"/>
<path d="M17.1486 36.982L40.8333 60.6667L73.4999 28.0001L49.5886 12.0592C49.2358 11.824 48.7731 11.8369 48.4339 12.0913L17.2557 35.4749C16.7688 35.8401 16.7182 36.5517 17.1486 36.982Z" fill="#E1A20D"/>
<path d="M178.851 36.982L155.167 60.6667L122.5 28.0001L146.411 12.0592C146.764 11.824 147.227 11.8369 147.566 12.0913L178.744 35.4749C179.231 35.8401 179.282 36.5517 178.851 36.982Z" fill="#E1A20D"/>
<path d="M147 60.6667V68.8334H49V60.6667L73.5 36.1667H122.5L147 60.6667Z" stroke="#E1A20D" stroke-width="17" stroke-linecap="round"/>
<path d="M92.0693 80.1638C94.1292 75.0283 95.1592 72.4605 96.8326 72.1046C97.2726 72.011 97.7274 72.011 98.1674 72.1046C99.8408 72.4605 100.871 75.0283 102.931 80.1638C104.102 83.0843 104.688 84.5445 105.784 85.5377C106.091 85.8163 106.425 86.0644 106.78 86.2785C108.047 87.0421 109.629 87.1837 112.791 87.4669C118.145 87.9464 120.822 88.1862 121.64 89.7125C121.809 90.0286 121.924 90.3709 121.98 90.7251C122.251 92.4352 120.283 94.2256 116.347 97.8065L115.254 98.8009C113.414 100.475 112.494 101.312 111.962 102.357C111.643 102.983 111.429 103.658 111.328 104.354C111.161 105.515 111.431 106.729 111.97 109.158L112.162 110.025C113.128 114.381 113.612 116.559 113.008 117.629C112.467 118.591 111.469 119.206 110.366 119.259C109.139 119.317 107.41 117.908 103.951 115.09C101.673 113.233 100.533 112.305 99.2687 111.942C98.1129 111.611 96.8872 111.611 95.7314 111.942C94.4666 112.305 93.3273 113.233 91.0488 115.09C87.5903 117.908 85.861 119.317 84.6337 119.259C83.5314 119.206 82.5334 118.591 81.9916 117.629C81.3885 116.559 81.8717 114.381 82.838 110.025L83.0305 109.158C83.5694 106.729 83.8388 105.515 83.6716 104.354C83.5713 103.658 83.3573 102.983 83.038 102.357C82.5059 101.312 81.5858 100.475 79.7457 98.8009L78.6527 97.8065C74.7167 94.2256 72.7488 92.4352 73.0198 90.7251C73.0759 90.3709 73.191 90.0286 73.3603 89.7125C74.1778 88.1862 76.8548 87.9464 82.2087 87.4669C85.3715 87.1837 86.9528 87.0421 88.2196 86.2785C88.5749 86.0644 88.9086 85.8163 89.216 85.5377C90.312 84.5445 90.8978 83.0843 92.0693 80.1638Z" fill="#FFE7AC" stroke="#FFE7AC" stroke-width="2"/>
</svg>
