<svg width="102" height="90" viewBox="0 0 102 90" fill="none" xmlns="http://www.w3.org/2000/svg">
<circle cx="51.5" cy="22" r="15.375" stroke="#14C2DF" stroke-width="6" stroke-linecap="round"/>
<path d="M61.8415 12.5313C63.1086 10.3367 64.9979 8.56711 67.2707 7.44632C69.5434 6.32553 72.0975 5.90385 74.6099 6.23461C77.1223 6.56538 79.4802 7.63372 81.3854 9.30455C83.2906 10.9754 84.6576 13.1737 85.3134 15.6214C85.9693 18.0691 85.8846 20.6564 85.07 23.0559C84.2555 25.4555 82.7477 27.5597 80.7373 29.1023C78.7268 30.645 76.3041 31.5568 73.7755 31.7226C71.2468 31.8883 68.7258 31.3005 66.5312 30.0334" stroke="#14C2DF" stroke-width="5"/>
<path d="M41.1585 12.5313C39.8914 10.3367 38.0021 8.56711 35.7293 7.44632C33.4566 6.32553 30.9025 5.90385 28.3901 6.23461C25.8777 6.56538 23.5198 7.63372 21.6146 9.30455C19.7094 10.9754 18.3424 13.1737 17.6866 15.6214C17.0307 18.0691 17.1154 20.6564 17.93 23.0559C18.7445 25.4555 20.2523 27.5597 22.2627 29.1023C24.2732 30.645 26.6959 31.5568 29.2245 31.7226C31.7532 31.8883 34.2742 31.3005 36.4688 30.0334" stroke="#14C2DF" stroke-width="5"/>
<path d="M51.5 49.5625C81.8865 49.5625 84.864 79.4633 85.1558 85.3231C85.1833 85.8747 84.7398 86.3125 84.1875 86.3125H18.8125C18.2602 86.3125 17.8167 85.8747 17.8442 85.3231C18.136 79.4633 21.1135 49.5625 51.5 49.5625Z" stroke="#14C2DF" stroke-width="6" stroke-linecap="round"/>
<path d="M97.2987 72.9834L100.268 72.5546L100.268 72.5545L97.2987 72.9834ZM58.1584 50.0887L55.943 48.0659L52.2204 52.1431L57.6666 53.0481L58.1584 50.0887ZM83.2355 74.0625L80.3537 74.8962L80.9804 77.0625H83.2355V74.0625ZM72.9375 46.4375C80.8912 46.4375 85.9671 51.3814 89.316 57.5958C92.6814 63.8408 93.9545 70.8159 94.3296 73.4123L100.268 72.5545C99.858 69.7167 98.4614 61.9188 94.5978 54.7494C90.7178 47.5494 84.0055 40.4375 72.9375 40.4375V46.4375ZM60.3739 52.1115C63.4484 48.7442 67.4699 46.4375 72.9375 46.4375V40.4375C65.5024 40.4375 59.9495 43.6778 55.943 48.0659L60.3739 52.1115ZM57.6666 53.0481C71.7916 55.3954 77.7655 65.9502 80.3537 74.8962L86.1173 73.2288C83.2348 63.2652 76.0716 50.0244 58.6502 47.1293L57.6666 53.0481ZM96.3323 71.0625H83.2355V77.0625H96.3323V71.0625ZM94.3296 73.4123C94.1332 72.0526 95.2371 71.0625 96.3323 71.0625V77.0625C98.6109 77.0625 100.633 75.0853 100.268 72.5546L94.3296 73.4123Z" fill="#14C2DF"/>
<path d="M44.8417 50.0887L45.3335 53.0481L50.7797 52.1431L47.0571 48.0659L44.8417 50.0887ZM5.70123 72.9834L2.73205 72.5545L2.73205 72.5545L5.70123 72.9834ZM19.7646 74.0625V77.0625H22.0197L22.6464 74.8962L19.7646 74.0625ZM30.0626 46.4375C35.5303 46.4375 39.5517 48.7442 42.6262 52.1115L47.0571 48.0659C43.0507 43.6778 37.4977 40.4375 30.0626 40.4375V46.4375ZM8.67041 73.4123C9.04547 70.8159 10.3187 63.8408 13.6841 57.5958C17.033 51.3814 22.1089 46.4375 30.0626 46.4375V40.4375C18.9947 40.4375 12.2823 47.5494 8.40224 54.7494C4.53864 61.9188 3.14198 69.7167 2.73205 72.5545L8.67041 73.4123ZM6.66763 71.0625C7.76292 71.0625 8.86682 72.0526 8.67041 73.4123L2.73205 72.5545C2.36648 75.0853 4.38909 77.0625 6.66763 77.0625V71.0625ZM19.7646 71.0625H6.66763V77.0625H19.7646V71.0625ZM22.6464 74.8962C25.2346 65.9502 31.2085 55.3954 45.3335 53.0481L44.3499 47.1293C26.9285 50.0244 19.7654 63.2652 16.8828 73.2288L22.6464 74.8962Z" fill="#14C2DF"/>
</svg>
