<svg width="77" height="77" viewBox="0 0 77 77" fill="none" xmlns="http://www.w3.org/2000/svg">
<path d="M23.925 46.7504C28.0257 46.7504 31.35 43.4261 31.35 39.3254C31.35 35.2246 28.0257 31.9004 23.925 31.9004C19.8243 31.9004 16.5 35.2246 16.5 39.3254C16.5 43.4261 19.8243 46.7504 23.925 46.7504Z" stroke="white" stroke-width="5" stroke-linecap="round" stroke-linejoin="round"/>
<path d="M46.6944 27.5C45.5661 24.3081 43.4831 21.5405 40.7283 19.5726C37.9734 17.6048 34.6798 16.5321 31.2944 16.5V39.325" stroke="white" stroke-width="5" stroke-linecap="round" stroke-linejoin="round"/>
<path d="M55 2.75H8.25C5.21243 2.75 2.75 5.21243 2.75 8.25V55C2.75 58.0376 5.21243 60.5 8.25 60.5H55C58.0376 60.5 60.5 58.0376 60.5 55V8.25C60.5 5.21243 58.0376 2.75 55 2.75Z" stroke="white" stroke-width="5" stroke-linecap="round" stroke-linejoin="round"/>
<path d="M74.25 19.25V68.75C74.25 70.2086 73.6703 71.6078 72.639 72.639C71.6078 73.6703 70.2086 74.25 68.75 74.25H19.25" stroke="white" stroke-width="5" stroke-linecap="round" stroke-linejoin="round"/>
</svg>
