<svg width="292" height="277" viewBox="0 0 292 277" fill="none" xmlns="http://www.w3.org/2000/svg">
<ellipse cx="145.355" cy="135.335" rx="137.305" ry="131.066" fill="#F7DEE6"/>
<ellipse cx="145.356" cy="135.335" rx="111.365" ry="106.304" fill="#CA2355"/>
<path d="M197.03 133.806L116.495 95.6041C113.177 94.0304 109.352 96.4498 109.352 100.122V176.526C109.352 180.198 113.177 182.617 116.495 181.043L197.03 142.841C200.84 141.034 200.84 135.613 197.03 133.806Z" stroke="#5B1026" stroke-width="8" stroke-linecap="round" stroke-linejoin="round"/>
<path d="M63.649 117.44C67.0256 105.485 73.2557 94.427 81.8574 85.1217C90.4591 75.8165 101.202 68.5132 113.255 63.7768C125.307 59.0405 138.347 56.9981 151.365 57.8075C164.383 58.617 177.03 62.2567 188.328 68.445C199.626 74.6333 209.272 83.2044 216.52 93.4953C223.768 103.786 228.424 115.521 230.126 127.792C231.829 140.062 230.534 152.54 226.34 164.26C222.147 175.98 215.168 186.628 205.943 195.379" stroke="#5B1026" stroke-width="10" stroke-linecap="round"/>
</svg>
