<svg width="144" height="145" viewBox="0 0 144 145" fill="none" xmlns="http://www.w3.org/2000/svg">
<g clip-path="url(#clip0_100_2568)">
<path d="M6 33.572C6 32.7954 6 32.4071 6.13859 32.0545C6.27718 31.7018 6.54155 31.4174 7.0703 30.8486L29.5633 6.65161C30.1481 6.02255 30.4404 5.70802 30.8226 5.54151C31.2047 5.375 31.6341 5.375 32.493 5.375H111.507C112.366 5.375 112.795 5.375 113.177 5.54151C113.56 5.70802 113.852 6.02255 114.437 6.65161L136.93 30.8486C137.458 31.4174 137.723 31.7018 137.861 32.0545C138 32.4071 138 32.7954 138 33.572V134.5C138 136.386 138 137.328 137.414 137.914C136.828 138.5 135.886 138.5 134 138.5H10C8.11438 138.5 7.17157 138.5 6.58579 137.914C6 137.328 6 136.386 6 134.5V33.572Z" stroke="#E5B135" stroke-width="8"/>
<path d="M6 49.75H138" stroke="#E5B135" stroke-width="8" stroke-linecap="round"/>
<path d="M95.374 44.656L48.624 44.656C46.6795 44.656 45.7072 44.656 45.1031 45.3059C44.499 45.9557 44.499 47.0016 44.499 49.0935L44.499 86.0727C44.499 92.8604 44.499 96.2542 45.315 98.0783C47.1366 102.15 51.5114 104.1 55.476 102.606C57.252 101.937 59.4828 99.537 63.9445 94.7374C66.0109 92.5145 67.0441 91.403 68.1427 90.7781C70.5553 89.4057 73.4427 89.4057 75.8554 90.7781C76.9539 91.403 77.9872 92.5144 80.0536 94.7374C84.5152 99.537 86.746 101.937 88.522 102.606C92.4866 104.1 96.8615 102.15 98.683 98.0783C99.499 96.2542 99.499 92.8604 99.499 86.0727V49.0935C99.499 47.0017 99.499 45.9557 98.8949 45.3059C98.2908 44.656 97.3186 44.656 95.374 44.656Z" fill="#E5B135"/>
</g>
<defs>
<clipPath id="clip0_100_2568">
<rect width="144" height="145" fill="white"/>
</clipPath>
</defs>
</svg>
