<svg width="20" height="22" viewBox="0 0 20 22" fill="none" xmlns="http://www.w3.org/2000/svg">
<path d="M13.4615 16.3846V19.4615C13.4615 19.8695 13.3157 20.2609 13.056 20.5494C12.7963 20.8378 12.4442 21 12.0769 21H2.38462C2.01739 21 1.66521 20.8378 1.40554 20.5494C1.14588 20.2609 1 19.8695 1 19.4615V2.53846C1 2.13043 1.14588 1.73912 1.40554 1.4506C1.66521 1.16209 2.01739 1 2.38462 1H12.0769C12.4442 1 12.7963 1.16209 13.056 1.4506C13.3157 1.73912 13.4615 2.13043 13.4615 2.53846V5.61538" stroke="#3C3C3C" stroke-width="1.2" stroke-linecap="round" stroke-linejoin="round"/>
<path d="M9.30762 11H18.9999" stroke="#3C3C3C" stroke-width="1.4" stroke-linecap="round" stroke-linejoin="round"/>
<path d="M16.2308 7.9231L19.0001 11L16.2308 14.0769" stroke="#3C3C3C" stroke-width="1.4" stroke-linecap="round" stroke-linejoin="round"/>
</svg>
