<svg width="171" height="170" viewBox="0 0 171 170" fill="none" xmlns="http://www.w3.org/2000/svg">
<ellipse cx="85.1148" cy="82.7104" rx="80.4007" ry="80.1011" fill="#D9D9D9"/>
<ellipse cx="85.1147" cy="82.7102" rx="65.211" ry="64.968" fill="#B0B0B0"/>
<path d="M111.899 80.0559L71.2509 59.9316C67.9276 58.2863 64.0325 60.7042 64.0325 64.4125V104.661C64.0325 108.369 67.9276 110.787 71.2509 109.142L111.899 89.0177C115.608 87.1816 115.608 81.892 111.899 80.0559Z" stroke="#222222" stroke-width="8" stroke-linecap="round" stroke-linejoin="round"/>
<path d="M37.2706 71.7735C39.2478 64.4672 42.8959 57.7092 47.9327 52.0223C52.9696 46.3354 59.2602 41.872 66.3179 38.9774C73.3755 36.0827 81.0111 34.8345 88.6339 35.3292C96.2567 35.8239 103.662 38.0483 110.278 41.8303C116.894 45.6123 122.542 50.8506 126.786 57.1398C131.03 63.4291 133.757 70.6007 134.754 78.1C135.751 85.5993 134.992 93.2252 132.537 100.388C130.081 107.55 125.994 114.058 120.593 119.406" stroke="#2A4157" stroke-opacity="0.24" stroke-width="10" stroke-linecap="round"/>
<path d="M37.2705 71.7735C39.2476 64.4672 42.8958 57.7092 47.9326 52.0223C52.9695 46.3354 59.2601 41.872 66.3177 38.9774C73.3754 36.0827 81.011 34.8345 88.6338 35.3292C96.2566 35.8239 103.662 38.0483 110.278 41.8303C116.894 45.6123 122.542 50.8506 126.786 57.1398C131.03 63.4291 133.756 70.6007 134.753 78.1C135.751 85.5993 134.992 93.2252 132.537 100.388C130.081 107.55 125.994 114.058 120.593 119.406" stroke="#2A4157" stroke-opacity="0.24" stroke-width="10" stroke-linecap="round"/>
</svg>
