<svg width="32" height="34" viewBox="0 0 32 34" fill="none" xmlns="http://www.w3.org/2000/svg">
<path d="M29.3332 18.3348V23.7046C29.3332 28.4032 26.6665 30.4168 22.6665 30.4168H9.33317C5.33317 30.4168 2.6665 28.4032 2.6665 23.7046V18.3348C2.6665 14.7773 4.19984 12.7637 6.6665 11.9985C7.4665 11.7434 8.35984 11.6226 9.33317 11.6226H22.6665C23.6398 11.6226 24.5332 11.7434 25.3332 11.9985C27.7998 12.7637 29.3332 14.7773 29.3332 18.3348Z" stroke="#3C3C3C" stroke-width="1.5" stroke-miterlimit="10" stroke-linecap="round" stroke-linejoin="round"/>
<path d="M25.3332 10.2801V11.9985C24.5332 11.7434 23.6398 11.6226 22.6665 11.6226H9.33317C8.35984 11.6226 7.4665 11.7434 6.6665 11.9985V10.2801C6.6665 8.80342 7.8665 7.59521 9.33317 7.59521H22.6665C24.1332 7.59521 25.3332 8.80342 25.3332 10.2801Z" stroke="#3C3C3C" stroke-width="1.5" stroke-miterlimit="10" stroke-linecap="round" stroke-linejoin="round"/>
<path d="M21.3332 5.59498V7.59521H10.6665V5.59498C10.6665 4.48075 11.5732 3.56787 12.6799 3.56787H19.3198C20.4265 3.56787 21.3332 4.48075 21.3332 5.59498Z" stroke="#3C3C3C" stroke-width="1.5" stroke-miterlimit="10" stroke-linecap="round" stroke-linejoin="round"/>
<path d="M12.0935 26.9938C13.0655 26.9938 13.8535 26.2004 13.8535 25.2217C13.8535 24.2431 13.0655 23.4497 12.0935 23.4497C11.1215 23.4497 10.3335 24.2431 10.3335 25.2217C10.3335 26.2004 11.1215 26.9938 12.0935 26.9938Z" stroke="#3C3C3C" stroke-width="1.5" stroke-linecap="round" stroke-linejoin="round"/>
<path d="M20.3333 24.0402V17.0997C20.3333 15.6231 19.4133 15.4083 18.48 15.6768L14.9467 16.6433C14.3067 16.8178 13.8667 17.3279 13.8667 18.0663V19.3013V20.1337V25.2215" stroke="#3C3C3C" stroke-width="1.5" stroke-linecap="round" stroke-linejoin="round"/>
<path d="M18.5735 25.8121C19.5455 25.8121 20.3335 25.0188 20.3335 24.0401C20.3335 23.0614 19.5455 22.2681 18.5735 22.2681C17.6015 22.2681 16.8135 23.0614 16.8135 24.0401C16.8135 25.0188 17.6015 25.8121 18.5735 25.8121Z" stroke="#3C3C3C" stroke-width="1.5" stroke-linecap="round" stroke-linejoin="round"/>
<path d="M13.8667 20.147L20.3333 18.375" stroke="#3C3C3C" stroke-width="1.5" stroke-linecap="round" stroke-linejoin="round"/>
</svg>
