<svg width="32" height="33" viewBox="0 0 32 33" fill="none" xmlns="http://www.w3.org/2000/svg">
<path d="M25.3335 11.3708C27.5426 11.3708 29.3335 9.62409 29.3335 7.46936C29.3335 5.31463 27.5426 3.56787 25.3335 3.56787C23.1244 3.56787 21.3335 5.31463 21.3335 7.46936C21.3335 9.62409 23.1244 11.3708 25.3335 11.3708Z" stroke="#3C3C3C" stroke-width="2" stroke-linecap="round" stroke-linejoin="round"/>
<path d="M18.6932 3.82797C17.8132 3.65891 16.9198 3.56787 15.9998 3.56787C8.63984 3.56787 2.6665 9.3941 2.6665 16.5728C2.6665 23.7516 8.63984 29.5778 15.9998 29.5778C23.3598 29.5778 29.3332 23.7516 29.3332 16.5728C29.3332 15.6885 29.2398 14.8172 29.0665 13.9848" stroke="#3C3C3C" stroke-width="2" stroke-linecap="round" stroke-linejoin="round"/>
</svg>
