<svg width="144" height="146" viewBox="0 0 144 146" fill="none" xmlns="http://www.w3.org/2000/svg">
<g filter="url(#filter0_d_160_2136)">
<ellipse cx="72" cy="69.374" rx="68" ry="68.4648" fill="white"/>
<path d="M139.5 69.374C139.5 106.913 109.276 137.339 72 137.339C34.724 137.339 4.5 106.913 4.5 69.374C4.5 31.8349 34.724 1.40918 72 1.40918C109.276 1.40918 139.5 31.8349 139.5 69.374Z" stroke="#424242"/>
</g>
<g filter="url(#filter1_d_160_2136)">
<g clip-path="url(#clip0_160_2136)">
<path d="M83.3831 76.2805V80.9925C83.3831 87.2752 92.1998 90.0238 92.1998 90.0238C92.1998 90.0238 82.0415 97.8771 71.4998 97.8771C60.9581 97.8771 50.7998 90.0238 50.7998 90.0238C50.7998 90.0238 59.6859 87.2752 59.6165 80.9925C59.5471 74.7098 59.5935 71.0188 59.5471 60.255C54.0532 52.9605 54.4058 48.0647 57.41 44.6218C67.4748 33.0872 94.8831 37.0139 94.8831 37.0139C94.8831 37.0139 97.4407 65.2831 91.6248 73.5318C89.1331 77.0658 83.3831 76.2805 83.3831 76.2805Z" fill="url(#paint0_linear_160_2136)"/>
<g style="mix-blend-mode:multiply">
<path d="M83.3835 76.2808C74.9501 75.2992 69.9668 71.5688 69.9668 71.5688C73.113 76.3368 77.9078 79.7047 83.3835 80.9928V76.2808Z" fill="#FFDBC9"/>
</g>
<path d="M111.75 101.925C115.399 109.526 117.5 127.056 117.5 127.056H25.5C25.5 127.056 27.6014 109.524 31.25 101.925C34.8986 94.3261 56.205 87.2781 56.205 87.2781C60.3116 95.914 82.8497 95.914 86.7839 87.2754C86.7839 87.2754 108.101 94.3241 111.75 101.925Z" fill="url(#paint1_linear_160_2136)"/>
<path d="M69.9668 117.118C69.9668 116.807 70.0567 116.504 70.2252 116.246C70.3937 115.987 70.6332 115.786 70.9133 115.667C71.1935 115.548 71.5018 115.517 71.7993 115.578C72.0967 115.638 72.3699 115.788 72.5844 116.007C72.7988 116.227 72.9448 116.507 73.004 116.812C73.0632 117.116 73.0328 117.432 72.9167 117.719C72.8007 118.006 72.6042 118.251 72.352 118.424C72.0998 118.597 71.8034 118.689 71.5001 118.689C71.0935 118.689 70.7035 118.523 70.4159 118.229C70.1283 117.934 69.9668 117.535 69.9668 117.118ZM69.9668 109.265C69.9668 108.954 70.0567 108.65 70.2252 108.392C70.3937 108.134 70.6332 107.933 70.9133 107.814C71.1935 107.695 71.5018 107.664 71.7993 107.724C72.0967 107.785 72.3699 107.935 72.5844 108.154C72.7988 108.374 72.9448 108.654 73.004 108.958C73.0632 109.263 73.0328 109.579 72.9167 109.866C72.8007 110.153 72.6042 110.398 72.352 110.571C72.0998 110.743 71.8034 110.835 71.5001 110.835C71.0935 110.835 70.7035 110.67 70.4159 110.375C70.1283 110.081 69.9668 109.681 69.9668 109.265ZM69.9668 101.411C69.9668 101.101 70.0567 100.797 70.2252 100.539C70.3937 100.281 70.6332 100.079 70.9133 99.9604C71.1935 99.8415 71.5018 99.8104 71.7993 99.871C72.0967 99.9316 72.3699 100.081 72.5844 100.301C72.7988 100.521 72.9448 100.8 73.004 101.105C73.0632 101.41 73.0328 101.726 72.9167 102.013C72.8007 102.3 72.6042 102.545 72.352 102.717C72.0998 102.89 71.8034 102.982 71.5001 102.982C71.0935 102.982 70.7035 102.817 70.4159 102.522C70.1283 102.228 69.9668 101.828 69.9668 101.411V101.411Z" fill="white"/>
<path d="M64.2764 48.4835C63.0574 47.4111 61.5762 46.689 59.4824 47.8034C54.5186 50.4433 58.2753 60.5741 62.6836 60.5741C63.8336 60.5741 64.4055 64.2738 59.2854 66.8567C59.2854 62.7338 53.152 52.5244 52.6154 43.2293C46.4437 40.8752 47.977 31.4563 52.214 31.4563C51.5378 22.8224 65.0354 18.3625 70.2617 23.3176C75.577 16.7918 88.9937 20.1295 89.8037 25.791C99.0294 20.7464 105.094 35.2471 96.4553 40.8764C92.9006 43.1931 84.5854 44.0747 72.582 44.0747C70.77 44.0747 69.755 44.5357 70.2617 46.8308C71.2427 51.2781 68.9653 54.0794 64.2764 48.4835Z" fill="url(#paint2_linear_160_2136)"/>
</g>
</g>
<defs>
<filter id="filter0_d_160_2136" x="0" y="0.90918" width="144" height="144.93" filterUnits="userSpaceOnUse" color-interpolation-filters="sRGB">
<feFlood flood-opacity="0" result="BackgroundImageFix"/>
<feColorMatrix in="SourceAlpha" type="matrix" values="0 0 0 0 0 0 0 0 0 0 0 0 0 0 0 0 0 0 127 0" result="hardAlpha"/>
<feOffset dy="4"/>
<feGaussianBlur stdDeviation="2"/>
<feComposite in2="hardAlpha" operator="out"/>
<feColorMatrix type="matrix" values="0 0 0 0 0 0 0 0 0 0 0 0 0 0 0 0 0 0 0.25 0"/>
<feBlend mode="normal" in2="BackgroundImageFix" result="effect1_dropShadow_160_2136"/>
<feBlend mode="normal" in="SourceGraphic" in2="effect1_dropShadow_160_2136" result="shape"/>
</filter>
<filter id="filter1_d_160_2136" x="4" y="-2.04297" width="135" height="137.8" filterUnits="userSpaceOnUse" color-interpolation-filters="sRGB">
<feFlood flood-opacity="0" result="BackgroundImageFix"/>
<feColorMatrix in="SourceAlpha" type="matrix" values="0 0 0 0 0 0 0 0 0 0 0 0 0 0 0 0 0 0 127 0" result="hardAlpha"/>
<feOffset/>
<feGaussianBlur stdDeviation="5"/>
<feColorMatrix type="matrix" values="0 0 0 0 0 0 0 0 0 0 0 0 0 0 0 0 0 0 0.25 0"/>
<feBlend mode="normal" in2="BackgroundImageFix" result="effect1_dropShadow_160_2136"/>
<feBlend mode="normal" in="SourceGraphic" in2="effect1_dropShadow_160_2136" result="shape"/>
</filter>
<linearGradient id="paint0_linear_160_2136" x1="73.1215" y1="36.3696" x2="73.1215" y2="97.8771" gradientUnits="userSpaceOnUse">
<stop stop-color="#FFD4B3"/>
<stop offset="1" stop-color="#FFDCC2"/>
</linearGradient>
<linearGradient id="paint1_linear_160_2136" x1="71.5" y1="87.2754" x2="71.5" y2="127.056" gradientUnits="userSpaceOnUse">
<stop stop-color="#806A6A"/>
<stop offset="1" stop-color="#665654"/>
</linearGradient>
<linearGradient id="paint2_linear_160_2136" x1="74.5606" y1="66.8568" x2="74.5606" y2="19.7358" gradientUnits="userSpaceOnUse">
<stop stop-color="#E23636"/>
<stop offset="1" stop-color="#E67240"/>
</linearGradient>
<clipPath id="clip0_160_2136">
<rect x="14" y="7.95703" width="115" height="117.8" rx="57.5" fill="white"/>
</clipPath>
</defs>
</svg>
