<svg width="230" height="142" viewBox="0 0 230 142" fill="none" xmlns="http://www.w3.org/2000/svg">
<g clip-path="url(#clip0_538_7359)">
<rect width="230" height="142" fill="#CA2355"/>
<g opacity="0.18" clip-path="url(#clip1_538_7359)">
<path d="M15 14.8599V19.1499" stroke="#171717" stroke-width="1.5" stroke-linecap="round" stroke-linejoin="round"/>
<path d="M18 13.4299V20.5699" stroke="#171717" stroke-width="1.5" stroke-linecap="round" stroke-linejoin="round"/>
<path d="M21 19.99V22" stroke="#171717" stroke-width="1.5" stroke-linecap="round" stroke-linejoin="round"/>
<path d="M21 12V16.95" stroke="#171717" stroke-width="1.5" stroke-linecap="round" stroke-linejoin="round"/>
<path d="M24 13.4299V20.5699" stroke="#171717" stroke-width="1.5" stroke-linecap="round" stroke-linejoin="round"/>
<path d="M27 14.8599V19.1499" stroke="#171717" stroke-width="1.5" stroke-linecap="round" stroke-linejoin="round"/>
<path d="M13 11C11.75 12.67 11 14.75 11 17C11 22.52 15.48 27 21 27C26.52 27 31 22.52 31 17C31 11.48 26.52 7 21 7C19.57 7 18.2 7.29998 16.97 7.84998" stroke="#171717" stroke-width="1.5" stroke-linecap="round" stroke-linejoin="round"/>
<path d="M44 13.8599V18.1499" stroke="#171717" stroke-width="1.5" stroke-linecap="round" stroke-linejoin="round"/>
<path d="M47 12.4299V19.5699" stroke="#171717" stroke-width="1.5" stroke-linecap="round" stroke-linejoin="round"/>
<path d="M50 18.99V21" stroke="#171717" stroke-width="1.5" stroke-linecap="round" stroke-linejoin="round"/>
<path d="M50 11V15.95" stroke="#171717" stroke-width="1.5" stroke-linecap="round" stroke-linejoin="round"/>
<path d="M53 12.4299V19.5699" stroke="#171717" stroke-width="1.5" stroke-linecap="round" stroke-linejoin="round"/>
<path d="M56 13.8599V18.1499" stroke="#171717" stroke-width="1.5" stroke-linecap="round" stroke-linejoin="round"/>
<path d="M42 10C40.75 11.67 40 13.75 40 16C40 21.52 44.48 26 50 26C55.52 26 60 21.52 60 16C60 10.48 55.52 6 50 6C48.57 6 47.2 6.29998 45.97 6.84998" stroke="#171717" stroke-width="1.5" stroke-linecap="round" stroke-linejoin="round"/>
<path d="M189 14.8599V19.1499" stroke="#171717" stroke-width="1.5" stroke-linecap="round" stroke-linejoin="round"/>
<path d="M192 13.4299V20.5699" stroke="#171717" stroke-width="1.5" stroke-linecap="round" stroke-linejoin="round"/>
<path d="M195 19.99V22" stroke="#171717" stroke-width="1.5" stroke-linecap="round" stroke-linejoin="round"/>
<path d="M195 12V16.95" stroke="#171717" stroke-width="1.5" stroke-linecap="round" stroke-linejoin="round"/>
<path d="M198 13.4299V20.5699" stroke="#171717" stroke-width="1.5" stroke-linecap="round" stroke-linejoin="round"/>
<path d="M201 14.8599V19.1499" stroke="#171717" stroke-width="1.5" stroke-linecap="round" stroke-linejoin="round"/>
<path d="M187 11C185.75 12.67 185 14.75 185 17C185 22.52 189.48 27 195 27C200.52 27 205 22.52 205 17C205 11.48 200.52 7 195 7C193.57 7 192.2 7.29998 190.97 7.84998" stroke="#171717" stroke-width="1.5" stroke-linecap="round" stroke-linejoin="round"/>
<path d="M218 14.8599V19.1499" stroke="#171717" stroke-width="1.5" stroke-linecap="round" stroke-linejoin="round"/>
<path d="M221 13.4299V20.5699" stroke="#171717" stroke-width="1.5" stroke-linecap="round" stroke-linejoin="round"/>
<path d="M224 19.99V22" stroke="#171717" stroke-width="1.5" stroke-linecap="round" stroke-linejoin="round"/>
<path d="M224 12V16.95" stroke="#171717" stroke-width="1.5" stroke-linecap="round" stroke-linejoin="round"/>
<path d="M227 13.4299V20.5699" stroke="#171717" stroke-width="1.5" stroke-linecap="round" stroke-linejoin="round"/>
<path d="M230 14.8599V19.1499" stroke="#171717" stroke-width="1.5" stroke-linecap="round" stroke-linejoin="round"/>
<path d="M216 11C214.75 12.67 214 14.75 214 17C214 22.52 218.48 27 224 27C229.52 27 234 22.52 234 17C234 11.48 229.52 7 224 7C222.57 7 221.2 7.29998 219.97 7.84998" stroke="#171717" stroke-width="1.5" stroke-linecap="round" stroke-linejoin="round"/>
<path d="M102 13.8599V18.1499" stroke="#171717" stroke-width="1.5" stroke-linecap="round" stroke-linejoin="round"/>
<path d="M105 12.4299V19.5699" stroke="#171717" stroke-width="1.5" stroke-linecap="round" stroke-linejoin="round"/>
<path d="M108 18.99V21" stroke="#171717" stroke-width="1.5" stroke-linecap="round" stroke-linejoin="round"/>
<path d="M108 11V15.95" stroke="#171717" stroke-width="1.5" stroke-linecap="round" stroke-linejoin="round"/>
<path d="M111 12.4299V19.5699" stroke="#171717" stroke-width="1.5" stroke-linecap="round" stroke-linejoin="round"/>
<path d="M114 13.8599V18.1499" stroke="#171717" stroke-width="1.5" stroke-linecap="round" stroke-linejoin="round"/>
<path d="M100 10C98.75 11.67 98 13.75 98 16C98 21.52 102.48 26 108 26C113.52 26 118 21.52 118 16C118 10.48 113.52 6 108 6C106.57 6 105.2 6.29998 103.97 6.84998" stroke="#171717" stroke-width="1.5" stroke-linecap="round" stroke-linejoin="round"/>
<path d="M131 13.8599V18.1499" stroke="#171717" stroke-width="1.5" stroke-linecap="round" stroke-linejoin="round"/>
<path d="M134 12.4299V19.5699" stroke="#171717" stroke-width="1.5" stroke-linecap="round" stroke-linejoin="round"/>
<path d="M137 18.99V21" stroke="#171717" stroke-width="1.5" stroke-linecap="round" stroke-linejoin="round"/>
<path d="M137 11V15.95" stroke="#171717" stroke-width="1.5" stroke-linecap="round" stroke-linejoin="round"/>
<path d="M140 12.4299V19.5699" stroke="#171717" stroke-width="1.5" stroke-linecap="round" stroke-linejoin="round"/>
<path d="M143 13.8599V18.1499" stroke="#171717" stroke-width="1.5" stroke-linecap="round" stroke-linejoin="round"/>
<path d="M129 10C127.75 11.67 127 13.75 127 16C127 21.52 131.48 26 137 26C142.52 26 147 21.52 147 16C147 10.48 142.52 6 137 6C135.57 6 134.2 6.29998 132.97 6.84998" stroke="#171717" stroke-width="1.5" stroke-linecap="round" stroke-linejoin="round"/>
<path d="M160 13.8599V18.1499" stroke="#171717" stroke-width="1.5" stroke-linecap="round" stroke-linejoin="round"/>
<path d="M163 12.4299V19.5699" stroke="#171717" stroke-width="1.5" stroke-linecap="round" stroke-linejoin="round"/>
<path d="M166 18.99V21" stroke="#171717" stroke-width="1.5" stroke-linecap="round" stroke-linejoin="round"/>
<path d="M166 11V15.95" stroke="#171717" stroke-width="1.5" stroke-linecap="round" stroke-linejoin="round"/>
<path d="M169 12.4299V19.5699" stroke="#171717" stroke-width="1.5" stroke-linecap="round" stroke-linejoin="round"/>
<path d="M172 13.8599V18.1499" stroke="#171717" stroke-width="1.5" stroke-linecap="round" stroke-linejoin="round"/>
<path d="M158 10C156.75 11.67 156 13.75 156 16C156 21.52 160.48 26 166 26C171.52 26 176 21.52 176 16C176 10.48 171.52 6 166 6C164.57 6 163.2 6.29998 161.97 6.84998" stroke="#171717" stroke-width="1.5" stroke-linecap="round" stroke-linejoin="round"/>
<path d="M73 13.8599V18.1499" stroke="#171717" stroke-width="1.5" stroke-linecap="round" stroke-linejoin="round"/>
<path d="M76 12.4299V19.5699" stroke="#171717" stroke-width="1.5" stroke-linecap="round" stroke-linejoin="round"/>
<path d="M79 18.99V21" stroke="#171717" stroke-width="1.5" stroke-linecap="round" stroke-linejoin="round"/>
<path d="M79 11V15.95" stroke="#171717" stroke-width="1.5" stroke-linecap="round" stroke-linejoin="round"/>
<path d="M82 12.4299V19.5699" stroke="#171717" stroke-width="1.5" stroke-linecap="round" stroke-linejoin="round"/>
<path d="M85 13.8599V18.1499" stroke="#171717" stroke-width="1.5" stroke-linecap="round" stroke-linejoin="round"/>
<path d="M71 10C69.75 11.67 69 13.75 69 16C69 21.52 73.48 26 79 26C84.52 26 89 21.52 89 16C89 10.48 84.52 6 79 6C77.57 6 76.2 6.29998 74.97 6.84998" stroke="#171717" stroke-width="1.5" stroke-linecap="round" stroke-linejoin="round"/>
<path d="M15 41.8599V46.1499" stroke="#171717" stroke-width="1.5" stroke-linecap="round" stroke-linejoin="round"/>
<path d="M18 40.4299V47.5699" stroke="#171717" stroke-width="1.5" stroke-linecap="round" stroke-linejoin="round"/>
<path d="M21 46.99V49" stroke="#171717" stroke-width="1.5" stroke-linecap="round" stroke-linejoin="round"/>
<path d="M21 39V43.95" stroke="#171717" stroke-width="1.5" stroke-linecap="round" stroke-linejoin="round"/>
<path d="M24 40.4299V47.5699" stroke="#171717" stroke-width="1.5" stroke-linecap="round" stroke-linejoin="round"/>
<path d="M27 41.8599V46.1499" stroke="#171717" stroke-width="1.5" stroke-linecap="round" stroke-linejoin="round"/>
<path d="M13 38C11.75 39.67 11 41.75 11 44C11 49.52 15.48 54 21 54C26.52 54 31 49.52 31 44C31 38.48 26.52 34 21 34C19.57 34 18.2 34.3 16.97 34.85" stroke="#171717" stroke-width="1.5" stroke-linecap="round" stroke-linejoin="round"/>
<path d="M44 40.8599V45.1499" stroke="#171717" stroke-width="1.5" stroke-linecap="round" stroke-linejoin="round"/>
<path d="M47 39.4299V46.5699" stroke="#171717" stroke-width="1.5" stroke-linecap="round" stroke-linejoin="round"/>
<path d="M50 45.99V48" stroke="#171717" stroke-width="1.5" stroke-linecap="round" stroke-linejoin="round"/>
<path d="M50 38V42.95" stroke="#171717" stroke-width="1.5" stroke-linecap="round" stroke-linejoin="round"/>
<path d="M53 39.4299V46.5699" stroke="#171717" stroke-width="1.5" stroke-linecap="round" stroke-linejoin="round"/>
<path d="M56 40.8599V45.1499" stroke="#171717" stroke-width="1.5" stroke-linecap="round" stroke-linejoin="round"/>
<path d="M42 37C40.75 38.67 40 40.75 40 43C40 48.52 44.48 53 50 53C55.52 53 60 48.52 60 43C60 37.48 55.52 33 50 33C48.57 33 47.2 33.3 45.97 33.85" stroke="#171717" stroke-width="1.5" stroke-linecap="round" stroke-linejoin="round"/>
<path d="M189 41.8599V46.1499" stroke="#171717" stroke-width="1.5" stroke-linecap="round" stroke-linejoin="round"/>
<path d="M192 40.4299V47.5699" stroke="#171717" stroke-width="1.5" stroke-linecap="round" stroke-linejoin="round"/>
<path d="M195 46.99V49" stroke="#171717" stroke-width="1.5" stroke-linecap="round" stroke-linejoin="round"/>
<path d="M195 39V43.95" stroke="#171717" stroke-width="1.5" stroke-linecap="round" stroke-linejoin="round"/>
<path d="M198 40.4299V47.5699" stroke="#171717" stroke-width="1.5" stroke-linecap="round" stroke-linejoin="round"/>
<path d="M201 41.8599V46.1499" stroke="#171717" stroke-width="1.5" stroke-linecap="round" stroke-linejoin="round"/>
<path d="M187 38C185.75 39.67 185 41.75 185 44C185 49.52 189.48 54 195 54C200.52 54 205 49.52 205 44C205 38.48 200.52 34 195 34C193.57 34 192.2 34.3 190.97 34.85" stroke="#171717" stroke-width="1.5" stroke-linecap="round" stroke-linejoin="round"/>
<path d="M218 41.8599V46.1499" stroke="#171717" stroke-width="1.5" stroke-linecap="round" stroke-linejoin="round"/>
<path d="M221 40.4299V47.5699" stroke="#171717" stroke-width="1.5" stroke-linecap="round" stroke-linejoin="round"/>
<path d="M224 46.99V49" stroke="#171717" stroke-width="1.5" stroke-linecap="round" stroke-linejoin="round"/>
<path d="M224 39V43.95" stroke="#171717" stroke-width="1.5" stroke-linecap="round" stroke-linejoin="round"/>
<path d="M227 40.4299V47.5699" stroke="#171717" stroke-width="1.5" stroke-linecap="round" stroke-linejoin="round"/>
<path d="M230 41.8599V46.1499" stroke="#171717" stroke-width="1.5" stroke-linecap="round" stroke-linejoin="round"/>
<path d="M216 38C214.75 39.67 214 41.75 214 44C214 49.52 218.48 54 224 54C229.52 54 234 49.52 234 44C234 38.48 229.52 34 224 34C222.57 34 221.2 34.3 219.97 34.85" stroke="#171717" stroke-width="1.5" stroke-linecap="round" stroke-linejoin="round"/>
<path d="M102 40.8599V45.1499" stroke="#171717" stroke-width="1.5" stroke-linecap="round" stroke-linejoin="round"/>
<path d="M105 39.4299V46.5699" stroke="#171717" stroke-width="1.5" stroke-linecap="round" stroke-linejoin="round"/>
<path d="M108 45.99V48" stroke="#171717" stroke-width="1.5" stroke-linecap="round" stroke-linejoin="round"/>
<path d="M108 38V42.95" stroke="#171717" stroke-width="1.5" stroke-linecap="round" stroke-linejoin="round"/>
<path d="M111 39.4299V46.5699" stroke="#171717" stroke-width="1.5" stroke-linecap="round" stroke-linejoin="round"/>
<path d="M114 40.8599V45.1499" stroke="#171717" stroke-width="1.5" stroke-linecap="round" stroke-linejoin="round"/>
<path d="M100 37C98.75 38.67 98 40.75 98 43C98 48.52 102.48 53 108 53C113.52 53 118 48.52 118 43C118 37.48 113.52 33 108 33C106.57 33 105.2 33.3 103.97 33.85" stroke="#171717" stroke-width="1.5" stroke-linecap="round" stroke-linejoin="round"/>
<path d="M131 40.8599V45.1499" stroke="#171717" stroke-width="1.5" stroke-linecap="round" stroke-linejoin="round"/>
<path d="M134 39.4299V46.5699" stroke="#171717" stroke-width="1.5" stroke-linecap="round" stroke-linejoin="round"/>
<path d="M137 45.99V48" stroke="#171717" stroke-width="1.5" stroke-linecap="round" stroke-linejoin="round"/>
<path d="M137 38V42.95" stroke="#171717" stroke-width="1.5" stroke-linecap="round" stroke-linejoin="round"/>
<path d="M140 39.4299V46.5699" stroke="#171717" stroke-width="1.5" stroke-linecap="round" stroke-linejoin="round"/>
<path d="M143 40.8599V45.1499" stroke="#171717" stroke-width="1.5" stroke-linecap="round" stroke-linejoin="round"/>
<path d="M129 37C127.75 38.67 127 40.75 127 43C127 48.52 131.48 53 137 53C142.52 53 147 48.52 147 43C147 37.48 142.52 33 137 33C135.57 33 134.2 33.3 132.97 33.85" stroke="#171717" stroke-width="1.5" stroke-linecap="round" stroke-linejoin="round"/>
<path d="M160 40.8599V45.1499" stroke="#171717" stroke-width="1.5" stroke-linecap="round" stroke-linejoin="round"/>
<path d="M163 39.4299V46.5699" stroke="#171717" stroke-width="1.5" stroke-linecap="round" stroke-linejoin="round"/>
<path d="M166 45.99V48" stroke="#171717" stroke-width="1.5" stroke-linecap="round" stroke-linejoin="round"/>
<path d="M166 38V42.95" stroke="#171717" stroke-width="1.5" stroke-linecap="round" stroke-linejoin="round"/>
<path d="M169 39.4299V46.5699" stroke="#171717" stroke-width="1.5" stroke-linecap="round" stroke-linejoin="round"/>
<path d="M172 40.8599V45.1499" stroke="#171717" stroke-width="1.5" stroke-linecap="round" stroke-linejoin="round"/>
<path d="M158 37C156.75 38.67 156 40.75 156 43C156 48.52 160.48 53 166 53C171.52 53 176 48.52 176 43C176 37.48 171.52 33 166 33C164.57 33 163.2 33.3 161.97 33.85" stroke="#171717" stroke-width="1.5" stroke-linecap="round" stroke-linejoin="round"/>
<path d="M73 40.8599V45.1499" stroke="#171717" stroke-width="1.5" stroke-linecap="round" stroke-linejoin="round"/>
<path d="M76 39.4299V46.5699" stroke="#171717" stroke-width="1.5" stroke-linecap="round" stroke-linejoin="round"/>
<path d="M79 45.99V48" stroke="#171717" stroke-width="1.5" stroke-linecap="round" stroke-linejoin="round"/>
<path d="M79 38V42.95" stroke="#171717" stroke-width="1.5" stroke-linecap="round" stroke-linejoin="round"/>
<path d="M82 39.4299V46.5699" stroke="#171717" stroke-width="1.5" stroke-linecap="round" stroke-linejoin="round"/>
<path d="M85 40.8599V45.1499" stroke="#171717" stroke-width="1.5" stroke-linecap="round" stroke-linejoin="round"/>
<path d="M71 37C69.75 38.67 69 40.75 69 43C69 48.52 73.48 53 79 53C84.52 53 89 48.52 89 43C89 37.48 84.52 33 79 33C77.57 33 76.2 33.3 74.97 33.85" stroke="#171717" stroke-width="1.5" stroke-linecap="round" stroke-linejoin="round"/>
<path d="M15 68.8599V73.1499" stroke="#171717" stroke-width="1.5" stroke-linecap="round" stroke-linejoin="round"/>
<path d="M18 67.4299V74.5699" stroke="#171717" stroke-width="1.5" stroke-linecap="round" stroke-linejoin="round"/>
<path d="M21 73.99V76" stroke="#171717" stroke-width="1.5" stroke-linecap="round" stroke-linejoin="round"/>
<path d="M21 66V70.95" stroke="#171717" stroke-width="1.5" stroke-linecap="round" stroke-linejoin="round"/>
<path d="M24 67.4299V74.5699" stroke="#171717" stroke-width="1.5" stroke-linecap="round" stroke-linejoin="round"/>
<path d="M27 68.8599V73.1499" stroke="#171717" stroke-width="1.5" stroke-linecap="round" stroke-linejoin="round"/>
<path d="M13 65C11.75 66.67 11 68.75 11 71C11 76.52 15.48 81 21 81C26.52 81 31 76.52 31 71C31 65.48 26.52 61 21 61C19.57 61 18.2 61.3 16.97 61.85" stroke="#171717" stroke-width="1.5" stroke-linecap="round" stroke-linejoin="round"/>
<path d="M44 67.8599V72.1499" stroke="#171717" stroke-width="1.5" stroke-linecap="round" stroke-linejoin="round"/>
<path d="M47 66.4299V73.5699" stroke="#171717" stroke-width="1.5" stroke-linecap="round" stroke-linejoin="round"/>
<path d="M50 72.99V75" stroke="#171717" stroke-width="1.5" stroke-linecap="round" stroke-linejoin="round"/>
<path d="M50 65V69.95" stroke="#171717" stroke-width="1.5" stroke-linecap="round" stroke-linejoin="round"/>
<path d="M53 66.4299V73.5699" stroke="#171717" stroke-width="1.5" stroke-linecap="round" stroke-linejoin="round"/>
<path d="M56 67.8599V72.1499" stroke="#171717" stroke-width="1.5" stroke-linecap="round" stroke-linejoin="round"/>
<path d="M42 64C40.75 65.67 40 67.75 40 70C40 75.52 44.48 80 50 80C55.52 80 60 75.52 60 70C60 64.48 55.52 60 50 60C48.57 60 47.2 60.3 45.97 60.85" stroke="#171717" stroke-width="1.5" stroke-linecap="round" stroke-linejoin="round"/>
<path d="M189 68.8599V73.1499" stroke="#171717" stroke-width="1.5" stroke-linecap="round" stroke-linejoin="round"/>
<path d="M192 67.4299V74.5699" stroke="#171717" stroke-width="1.5" stroke-linecap="round" stroke-linejoin="round"/>
<path d="M195 73.99V76" stroke="#171717" stroke-width="1.5" stroke-linecap="round" stroke-linejoin="round"/>
<path d="M195 66V70.95" stroke="#171717" stroke-width="1.5" stroke-linecap="round" stroke-linejoin="round"/>
<path d="M198 67.4299V74.5699" stroke="#171717" stroke-width="1.5" stroke-linecap="round" stroke-linejoin="round"/>
<path d="M201 68.8599V73.1499" stroke="#171717" stroke-width="1.5" stroke-linecap="round" stroke-linejoin="round"/>
<path d="M187 65C185.75 66.67 185 68.75 185 71C185 76.52 189.48 81 195 81C200.52 81 205 76.52 205 71C205 65.48 200.52 61 195 61C193.57 61 192.2 61.3 190.97 61.85" stroke="#171717" stroke-width="1.5" stroke-linecap="round" stroke-linejoin="round"/>
<path d="M218 68.8599V73.1499" stroke="#171717" stroke-width="1.5" stroke-linecap="round" stroke-linejoin="round"/>
<path d="M221 67.4299V74.5699" stroke="#171717" stroke-width="1.5" stroke-linecap="round" stroke-linejoin="round"/>
<path d="M224 73.99V76" stroke="#171717" stroke-width="1.5" stroke-linecap="round" stroke-linejoin="round"/>
<path d="M224 66V70.95" stroke="#171717" stroke-width="1.5" stroke-linecap="round" stroke-linejoin="round"/>
<path d="M227 67.4299V74.5699" stroke="#171717" stroke-width="1.5" stroke-linecap="round" stroke-linejoin="round"/>
<path d="M230 68.8599V73.1499" stroke="#171717" stroke-width="1.5" stroke-linecap="round" stroke-linejoin="round"/>
<path d="M216 65C214.75 66.67 214 68.75 214 71C214 76.52 218.48 81 224 81C229.52 81 234 76.52 234 71C234 65.48 229.52 61 224 61C222.57 61 221.2 61.3 219.97 61.85" stroke="#171717" stroke-width="1.5" stroke-linecap="round" stroke-linejoin="round"/>
<path d="M102 67.8599V72.1499" stroke="#171717" stroke-width="1.5" stroke-linecap="round" stroke-linejoin="round"/>
<path d="M105 66.4299V73.5699" stroke="#171717" stroke-width="1.5" stroke-linecap="round" stroke-linejoin="round"/>
<path d="M108 72.99V75" stroke="#171717" stroke-width="1.5" stroke-linecap="round" stroke-linejoin="round"/>
<path d="M108 65V69.95" stroke="#171717" stroke-width="1.5" stroke-linecap="round" stroke-linejoin="round"/>
<path d="M111 66.4299V73.5699" stroke="#171717" stroke-width="1.5" stroke-linecap="round" stroke-linejoin="round"/>
<path d="M114 67.8599V72.1499" stroke="#171717" stroke-width="1.5" stroke-linecap="round" stroke-linejoin="round"/>
<path d="M100 64C98.75 65.67 98 67.75 98 70C98 75.52 102.48 80 108 80C113.52 80 118 75.52 118 70C118 64.48 113.52 60 108 60C106.57 60 105.2 60.3 103.97 60.85" stroke="#171717" stroke-width="1.5" stroke-linecap="round" stroke-linejoin="round"/>
<path d="M131 67.8599V72.1499" stroke="#171717" stroke-width="1.5" stroke-linecap="round" stroke-linejoin="round"/>
<path d="M134 66.4299V73.5699" stroke="#171717" stroke-width="1.5" stroke-linecap="round" stroke-linejoin="round"/>
<path d="M137 72.99V75" stroke="#171717" stroke-width="1.5" stroke-linecap="round" stroke-linejoin="round"/>
<path d="M137 65V69.95" stroke="#171717" stroke-width="1.5" stroke-linecap="round" stroke-linejoin="round"/>
<path d="M140 66.4299V73.5699" stroke="#171717" stroke-width="1.5" stroke-linecap="round" stroke-linejoin="round"/>
<path d="M143 67.8599V72.1499" stroke="#171717" stroke-width="1.5" stroke-linecap="round" stroke-linejoin="round"/>
<path d="M129 64C127.75 65.67 127 67.75 127 70C127 75.52 131.48 80 137 80C142.52 80 147 75.52 147 70C147 64.48 142.52 60 137 60C135.57 60 134.2 60.3 132.97 60.85" stroke="#171717" stroke-width="1.5" stroke-linecap="round" stroke-linejoin="round"/>
<path d="M160 67.8599V72.1499" stroke="#171717" stroke-width="1.5" stroke-linecap="round" stroke-linejoin="round"/>
<path d="M163 66.4299V73.5699" stroke="#171717" stroke-width="1.5" stroke-linecap="round" stroke-linejoin="round"/>
<path d="M166 72.99V75" stroke="#171717" stroke-width="1.5" stroke-linecap="round" stroke-linejoin="round"/>
<path d="M166 65V69.95" stroke="#171717" stroke-width="1.5" stroke-linecap="round" stroke-linejoin="round"/>
<path d="M169 66.4299V73.5699" stroke="#171717" stroke-width="1.5" stroke-linecap="round" stroke-linejoin="round"/>
<path d="M172 67.8599V72.1499" stroke="#171717" stroke-width="1.5" stroke-linecap="round" stroke-linejoin="round"/>
<path d="M158 64C156.75 65.67 156 67.75 156 70C156 75.52 160.48 80 166 80C171.52 80 176 75.52 176 70C176 64.48 171.52 60 166 60C164.57 60 163.2 60.3 161.97 60.85" stroke="#171717" stroke-width="1.5" stroke-linecap="round" stroke-linejoin="round"/>
<path d="M73 67.8599V72.1499" stroke="#171717" stroke-width="1.5" stroke-linecap="round" stroke-linejoin="round"/>
<path d="M76 66.4299V73.5699" stroke="#171717" stroke-width="1.5" stroke-linecap="round" stroke-linejoin="round"/>
<path d="M79 72.99V75" stroke="#171717" stroke-width="1.5" stroke-linecap="round" stroke-linejoin="round"/>
<path d="M79 65V69.95" stroke="#171717" stroke-width="1.5" stroke-linecap="round" stroke-linejoin="round"/>
<path d="M82 66.4299V73.5699" stroke="#171717" stroke-width="1.5" stroke-linecap="round" stroke-linejoin="round"/>
<path d="M85 67.8599V72.1499" stroke="#171717" stroke-width="1.5" stroke-linecap="round" stroke-linejoin="round"/>
<path d="M71 64C69.75 65.67 69 67.75 69 70C69 75.52 73.48 80 79 80C84.52 80 89 75.52 89 70C89 64.48 84.52 60 79 60C77.57 60 76.2 60.3 74.97 60.85" stroke="#171717" stroke-width="1.5" stroke-linecap="round" stroke-linejoin="round"/>
<path d="M15 95.8599V100.15" stroke="#171717" stroke-width="1.5" stroke-linecap="round" stroke-linejoin="round"/>
<path d="M18 94.4299V101.57" stroke="#171717" stroke-width="1.5" stroke-linecap="round" stroke-linejoin="round"/>
<path d="M21 100.99V103" stroke="#171717" stroke-width="1.5" stroke-linecap="round" stroke-linejoin="round"/>
<path d="M21 93V97.95" stroke="#171717" stroke-width="1.5" stroke-linecap="round" stroke-linejoin="round"/>
<path d="M24 94.4299V101.57" stroke="#171717" stroke-width="1.5" stroke-linecap="round" stroke-linejoin="round"/>
<path d="M27 95.8599V100.15" stroke="#171717" stroke-width="1.5" stroke-linecap="round" stroke-linejoin="round"/>
<path d="M13 92C11.75 93.67 11 95.75 11 98C11 103.52 15.48 108 21 108C26.52 108 31 103.52 31 98C31 92.48 26.52 88 21 88C19.57 88 18.2 88.3 16.97 88.85" stroke="#171717" stroke-width="1.5" stroke-linecap="round" stroke-linejoin="round"/>
<path d="M44 94.8599V99.1499" stroke="#171717" stroke-width="1.5" stroke-linecap="round" stroke-linejoin="round"/>
<path d="M47 93.4299V100.57" stroke="#171717" stroke-width="1.5" stroke-linecap="round" stroke-linejoin="round"/>
<path d="M50 99.99V102" stroke="#171717" stroke-width="1.5" stroke-linecap="round" stroke-linejoin="round"/>
<path d="M50 92V96.95" stroke="#171717" stroke-width="1.5" stroke-linecap="round" stroke-linejoin="round"/>
<path d="M53 93.4299V100.57" stroke="#171717" stroke-width="1.5" stroke-linecap="round" stroke-linejoin="round"/>
<path d="M56 94.8599V99.1499" stroke="#171717" stroke-width="1.5" stroke-linecap="round" stroke-linejoin="round"/>
<path d="M42 91C40.75 92.67 40 94.75 40 97C40 102.52 44.48 107 50 107C55.52 107 60 102.52 60 97C60 91.48 55.52 87 50 87C48.57 87 47.2 87.3 45.97 87.85" stroke="#171717" stroke-width="1.5" stroke-linecap="round" stroke-linejoin="round"/>
<path d="M189 95.8599V100.15" stroke="#171717" stroke-width="1.5" stroke-linecap="round" stroke-linejoin="round"/>
<path d="M192 94.4299V101.57" stroke="#171717" stroke-width="1.5" stroke-linecap="round" stroke-linejoin="round"/>
<path d="M195 100.99V103" stroke="#171717" stroke-width="1.5" stroke-linecap="round" stroke-linejoin="round"/>
<path d="M195 93V97.95" stroke="#171717" stroke-width="1.5" stroke-linecap="round" stroke-linejoin="round"/>
<path d="M198 94.4299V101.57" stroke="#171717" stroke-width="1.5" stroke-linecap="round" stroke-linejoin="round"/>
<path d="M201 95.8599V100.15" stroke="#171717" stroke-width="1.5" stroke-linecap="round" stroke-linejoin="round"/>
<path d="M187 92C185.75 93.67 185 95.75 185 98C185 103.52 189.48 108 195 108C200.52 108 205 103.52 205 98C205 92.48 200.52 88 195 88C193.57 88 192.2 88.3 190.97 88.85" stroke="#171717" stroke-width="1.5" stroke-linecap="round" stroke-linejoin="round"/>
<path d="M218 95.8599V100.15" stroke="#171717" stroke-width="1.5" stroke-linecap="round" stroke-linejoin="round"/>
<path d="M221 94.4299V101.57" stroke="#171717" stroke-width="1.5" stroke-linecap="round" stroke-linejoin="round"/>
<path d="M224 100.99V103" stroke="#171717" stroke-width="1.5" stroke-linecap="round" stroke-linejoin="round"/>
<path d="M224 93V97.95" stroke="#171717" stroke-width="1.5" stroke-linecap="round" stroke-linejoin="round"/>
<path d="M227 94.4299V101.57" stroke="#171717" stroke-width="1.5" stroke-linecap="round" stroke-linejoin="round"/>
<path d="M230 95.8599V100.15" stroke="#171717" stroke-width="1.5" stroke-linecap="round" stroke-linejoin="round"/>
<path d="M216 92C214.75 93.67 214 95.75 214 98C214 103.52 218.48 108 224 108C229.52 108 234 103.52 234 98C234 92.48 229.52 88 224 88C222.57 88 221.2 88.3 219.97 88.85" stroke="#171717" stroke-width="1.5" stroke-linecap="round" stroke-linejoin="round"/>
<path d="M102 94.8599V99.1499" stroke="#171717" stroke-width="1.5" stroke-linecap="round" stroke-linejoin="round"/>
<path d="M105 93.4299V100.57" stroke="#171717" stroke-width="1.5" stroke-linecap="round" stroke-linejoin="round"/>
<path d="M108 99.99V102" stroke="#171717" stroke-width="1.5" stroke-linecap="round" stroke-linejoin="round"/>
<path d="M108 92V96.95" stroke="#171717" stroke-width="1.5" stroke-linecap="round" stroke-linejoin="round"/>
<path d="M111 93.4299V100.57" stroke="#171717" stroke-width="1.5" stroke-linecap="round" stroke-linejoin="round"/>
<path d="M114 94.8599V99.1499" stroke="#171717" stroke-width="1.5" stroke-linecap="round" stroke-linejoin="round"/>
<path d="M100 91C98.75 92.67 98 94.75 98 97C98 102.52 102.48 107 108 107C113.52 107 118 102.52 118 97C118 91.48 113.52 87 108 87C106.57 87 105.2 87.3 103.97 87.85" stroke="#171717" stroke-width="1.5" stroke-linecap="round" stroke-linejoin="round"/>
<path d="M131 94.8599V99.1499" stroke="#171717" stroke-width="1.5" stroke-linecap="round" stroke-linejoin="round"/>
<path d="M134 93.4299V100.57" stroke="#171717" stroke-width="1.5" stroke-linecap="round" stroke-linejoin="round"/>
<path d="M137 99.99V102" stroke="#171717" stroke-width="1.5" stroke-linecap="round" stroke-linejoin="round"/>
<path d="M137 92V96.95" stroke="#171717" stroke-width="1.5" stroke-linecap="round" stroke-linejoin="round"/>
<path d="M140 93.4299V100.57" stroke="#171717" stroke-width="1.5" stroke-linecap="round" stroke-linejoin="round"/>
<path d="M143 94.8599V99.1499" stroke="#171717" stroke-width="1.5" stroke-linecap="round" stroke-linejoin="round"/>
<path d="M129 91C127.75 92.67 127 94.75 127 97C127 102.52 131.48 107 137 107C142.52 107 147 102.52 147 97C147 91.48 142.52 87 137 87C135.57 87 134.2 87.3 132.97 87.85" stroke="#171717" stroke-width="1.5" stroke-linecap="round" stroke-linejoin="round"/>
<path d="M160 94.8599V99.1499" stroke="#171717" stroke-width="1.5" stroke-linecap="round" stroke-linejoin="round"/>
<path d="M163 93.4299V100.57" stroke="#171717" stroke-width="1.5" stroke-linecap="round" stroke-linejoin="round"/>
<path d="M166 99.99V102" stroke="#171717" stroke-width="1.5" stroke-linecap="round" stroke-linejoin="round"/>
<path d="M166 92V96.95" stroke="#171717" stroke-width="1.5" stroke-linecap="round" stroke-linejoin="round"/>
<path d="M169 93.4299V100.57" stroke="#171717" stroke-width="1.5" stroke-linecap="round" stroke-linejoin="round"/>
<path d="M172 94.8599V99.1499" stroke="#171717" stroke-width="1.5" stroke-linecap="round" stroke-linejoin="round"/>
<path d="M158 91C156.75 92.67 156 94.75 156 97C156 102.52 160.48 107 166 107C171.52 107 176 102.52 176 97C176 91.48 171.52 87 166 87C164.57 87 163.2 87.3 161.97 87.85" stroke="#171717" stroke-width="1.5" stroke-linecap="round" stroke-linejoin="round"/>
<path d="M73 94.8599V99.1499" stroke="#171717" stroke-width="1.5" stroke-linecap="round" stroke-linejoin="round"/>
<path d="M76 93.4299V100.57" stroke="#171717" stroke-width="1.5" stroke-linecap="round" stroke-linejoin="round"/>
<path d="M79 99.99V102" stroke="#171717" stroke-width="1.5" stroke-linecap="round" stroke-linejoin="round"/>
<path d="M79 92V96.95" stroke="#171717" stroke-width="1.5" stroke-linecap="round" stroke-linejoin="round"/>
<path d="M82 93.4299V100.57" stroke="#171717" stroke-width="1.5" stroke-linecap="round" stroke-linejoin="round"/>
<path d="M85 94.8599V99.1499" stroke="#171717" stroke-width="1.5" stroke-linecap="round" stroke-linejoin="round"/>
<path d="M71 91C69.75 92.67 69 94.75 69 97C69 102.52 73.48 107 79 107C84.52 107 89 102.52 89 97C89 91.48 84.52 87 79 87C77.57 87 76.2 87.3 74.97 87.85" stroke="#171717" stroke-width="1.5" stroke-linecap="round" stroke-linejoin="round"/>
<path d="M15 122.86V127.15" stroke="#171717" stroke-width="1.5" stroke-linecap="round" stroke-linejoin="round"/>
<path d="M18 121.43V128.57" stroke="#171717" stroke-width="1.5" stroke-linecap="round" stroke-linejoin="round"/>
<path d="M21 127.99V130" stroke="#171717" stroke-width="1.5" stroke-linecap="round" stroke-linejoin="round"/>
<path d="M21 120V124.95" stroke="#171717" stroke-width="1.5" stroke-linecap="round" stroke-linejoin="round"/>
<path d="M24 121.43V128.57" stroke="#171717" stroke-width="1.5" stroke-linecap="round" stroke-linejoin="round"/>
<path d="M27 122.86V127.15" stroke="#171717" stroke-width="1.5" stroke-linecap="round" stroke-linejoin="round"/>
<path d="M13 119C11.75 120.67 11 122.75 11 125C11 130.52 15.48 135 21 135C26.52 135 31 130.52 31 125C31 119.48 26.52 115 21 115C19.57 115 18.2 115.3 16.97 115.85" stroke="#171717" stroke-width="1.5" stroke-linecap="round" stroke-linejoin="round"/>
<path d="M44 121.86V126.15" stroke="#171717" stroke-width="1.5" stroke-linecap="round" stroke-linejoin="round"/>
<path d="M47 120.43V127.57" stroke="#171717" stroke-width="1.5" stroke-linecap="round" stroke-linejoin="round"/>
<path d="M50 126.99V129" stroke="#171717" stroke-width="1.5" stroke-linecap="round" stroke-linejoin="round"/>
<path d="M50 119V123.95" stroke="#171717" stroke-width="1.5" stroke-linecap="round" stroke-linejoin="round"/>
<path d="M53 120.43V127.57" stroke="#171717" stroke-width="1.5" stroke-linecap="round" stroke-linejoin="round"/>
<path d="M56 121.86V126.15" stroke="#171717" stroke-width="1.5" stroke-linecap="round" stroke-linejoin="round"/>
<path d="M42 118C40.75 119.67 40 121.75 40 124C40 129.52 44.48 134 50 134C55.52 134 60 129.52 60 124C60 118.48 55.52 114 50 114C48.57 114 47.2 114.3 45.97 114.85" stroke="#171717" stroke-width="1.5" stroke-linecap="round" stroke-linejoin="round"/>
<path d="M189 122.86V127.15" stroke="#171717" stroke-width="1.5" stroke-linecap="round" stroke-linejoin="round"/>
<path d="M192 121.43V128.57" stroke="#171717" stroke-width="1.5" stroke-linecap="round" stroke-linejoin="round"/>
<path d="M195 127.99V130" stroke="#171717" stroke-width="1.5" stroke-linecap="round" stroke-linejoin="round"/>
<path d="M195 120V124.95" stroke="#171717" stroke-width="1.5" stroke-linecap="round" stroke-linejoin="round"/>
<path d="M198 121.43V128.57" stroke="#171717" stroke-width="1.5" stroke-linecap="round" stroke-linejoin="round"/>
<path d="M201 122.86V127.15" stroke="#171717" stroke-width="1.5" stroke-linecap="round" stroke-linejoin="round"/>
<path d="M187 119C185.75 120.67 185 122.75 185 125C185 130.52 189.48 135 195 135C200.52 135 205 130.52 205 125C205 119.48 200.52 115 195 115C193.57 115 192.2 115.3 190.97 115.85" stroke="#171717" stroke-width="1.5" stroke-linecap="round" stroke-linejoin="round"/>
<path d="M218 122.86V127.15" stroke="#171717" stroke-width="1.5" stroke-linecap="round" stroke-linejoin="round"/>
<path d="M221 121.43V128.57" stroke="#171717" stroke-width="1.5" stroke-linecap="round" stroke-linejoin="round"/>
<path d="M224 127.99V130" stroke="#171717" stroke-width="1.5" stroke-linecap="round" stroke-linejoin="round"/>
<path d="M224 120V124.95" stroke="#171717" stroke-width="1.5" stroke-linecap="round" stroke-linejoin="round"/>
<path d="M227 121.43V128.57" stroke="#171717" stroke-width="1.5" stroke-linecap="round" stroke-linejoin="round"/>
<path d="M230 122.86V127.15" stroke="#171717" stroke-width="1.5" stroke-linecap="round" stroke-linejoin="round"/>
<path d="M216 119C214.75 120.67 214 122.75 214 125C214 130.52 218.48 135 224 135C229.52 135 234 130.52 234 125C234 119.48 229.52 115 224 115C222.57 115 221.2 115.3 219.97 115.85" stroke="#171717" stroke-width="1.5" stroke-linecap="round" stroke-linejoin="round"/>
<path d="M102 121.86V126.15" stroke="#171717" stroke-width="1.5" stroke-linecap="round" stroke-linejoin="round"/>
<path d="M105 120.43V127.57" stroke="#171717" stroke-width="1.5" stroke-linecap="round" stroke-linejoin="round"/>
<path d="M108 126.99V129" stroke="#171717" stroke-width="1.5" stroke-linecap="round" stroke-linejoin="round"/>
<path d="M108 119V123.95" stroke="#171717" stroke-width="1.5" stroke-linecap="round" stroke-linejoin="round"/>
<path d="M111 120.43V127.57" stroke="#171717" stroke-width="1.5" stroke-linecap="round" stroke-linejoin="round"/>
<path d="M114 121.86V126.15" stroke="#171717" stroke-width="1.5" stroke-linecap="round" stroke-linejoin="round"/>
<path d="M100 118C98.75 119.67 98 121.75 98 124C98 129.52 102.48 134 108 134C113.52 134 118 129.52 118 124C118 118.48 113.52 114 108 114C106.57 114 105.2 114.3 103.97 114.85" stroke="#171717" stroke-width="1.5" stroke-linecap="round" stroke-linejoin="round"/>
<path d="M131 121.86V126.15" stroke="#171717" stroke-width="1.5" stroke-linecap="round" stroke-linejoin="round"/>
<path d="M134 120.43V127.57" stroke="#171717" stroke-width="1.5" stroke-linecap="round" stroke-linejoin="round"/>
<path d="M137 126.99V129" stroke="#171717" stroke-width="1.5" stroke-linecap="round" stroke-linejoin="round"/>
<path d="M137 119V123.95" stroke="#171717" stroke-width="1.5" stroke-linecap="round" stroke-linejoin="round"/>
<path d="M140 120.43V127.57" stroke="#171717" stroke-width="1.5" stroke-linecap="round" stroke-linejoin="round"/>
<path d="M143 121.86V126.15" stroke="#171717" stroke-width="1.5" stroke-linecap="round" stroke-linejoin="round"/>
<path d="M129 118C127.75 119.67 127 121.75 127 124C127 129.52 131.48 134 137 134C142.52 134 147 129.52 147 124C147 118.48 142.52 114 137 114C135.57 114 134.2 114.3 132.97 114.85" stroke="#171717" stroke-width="1.5" stroke-linecap="round" stroke-linejoin="round"/>
<path d="M160 121.86V126.15" stroke="#171717" stroke-width="1.5" stroke-linecap="round" stroke-linejoin="round"/>
<path d="M163 120.43V127.57" stroke="#171717" stroke-width="1.5" stroke-linecap="round" stroke-linejoin="round"/>
<path d="M166 126.99V129" stroke="#171717" stroke-width="1.5" stroke-linecap="round" stroke-linejoin="round"/>
<path d="M166 119V123.95" stroke="#171717" stroke-width="1.5" stroke-linecap="round" stroke-linejoin="round"/>
<path d="M169 120.43V127.57" stroke="#171717" stroke-width="1.5" stroke-linecap="round" stroke-linejoin="round"/>
<path d="M172 121.86V126.15" stroke="#171717" stroke-width="1.5" stroke-linecap="round" stroke-linejoin="round"/>
<path d="M158 118C156.75 119.67 156 121.75 156 124C156 129.52 160.48 134 166 134C171.52 134 176 129.52 176 124C176 118.48 171.52 114 166 114C164.57 114 163.2 114.3 161.97 114.85" stroke="#171717" stroke-width="1.5" stroke-linecap="round" stroke-linejoin="round"/>
<path d="M73 121.86V126.15" stroke="#171717" stroke-width="1.5" stroke-linecap="round" stroke-linejoin="round"/>
<path d="M76 120.43V127.57" stroke="#171717" stroke-width="1.5" stroke-linecap="round" stroke-linejoin="round"/>
<path d="M79 126.99V129" stroke="#171717" stroke-width="1.5" stroke-linecap="round" stroke-linejoin="round"/>
<path d="M79 119V123.95" stroke="#171717" stroke-width="1.5" stroke-linecap="round" stroke-linejoin="round"/>
<path d="M82 120.43V127.57" stroke="#171717" stroke-width="1.5" stroke-linecap="round" stroke-linejoin="round"/>
<path d="M85 121.86V126.15" stroke="#171717" stroke-width="1.5" stroke-linecap="round" stroke-linejoin="round"/>
<path d="M71 118C69.75 119.67 69 121.75 69 124C69 129.52 73.48 134 79 134C84.52 134 89 129.52 89 124C89 118.48 84.52 114 79 114C77.57 114 76.2 114.3 74.97 114.85" stroke="#171717" stroke-width="1.5" stroke-linecap="round" stroke-linejoin="round"/>
</g>
<path d="M118 114.167C143.773 114.167 164.667 94.3925 164.667 69.9999C164.667 45.6073 143.773 25.8333 118 25.8333C92.2269 25.8333 71.3335 45.6073 71.3335 69.9999C71.3335 94.3925 92.2269 114.167 118 114.167Z" stroke="white" stroke-width="8" stroke-linecap="round" stroke-linejoin="round"/>
<path d="M97.1665 52.125H138.833" stroke="white" stroke-width="3" stroke-miterlimit="10" stroke-linecap="round" stroke-linejoin="round"/>
<path d="M97.1665 64.375H115.917" stroke="white" stroke-width="3" stroke-miterlimit="10" stroke-linecap="round" stroke-linejoin="round"/>
<path d="M97.1665 76.625H109.667" stroke="white" stroke-width="3" stroke-miterlimit="10" stroke-linecap="round" stroke-linejoin="round"/>
<path d="M97.1665 88.875H105.5" stroke="white" stroke-width="3" stroke-miterlimit="10" stroke-linecap="round" stroke-linejoin="round"/>
<path d="M117.667 90.9165C120.175 90.9165 122.208 88.9238 122.208 86.4657C122.208 84.0076 120.175 82.0149 117.667 82.0149C115.158 82.0149 113.125 84.0076 113.125 86.4657C113.125 88.9238 115.158 90.9165 117.667 90.9165Z" stroke="white" stroke-width="3" stroke-linecap="round" stroke-linejoin="round"/>
<path d="M138.833 83.5053V66.1307C138.833 62.4353 136.458 61.9249 134.063 62.5578L125 64.9874C123.354 65.4366 122.208 66.7024 122.208 68.5603V71.6637V73.7462V86.4658" stroke="white" stroke-width="3" stroke-linecap="round" stroke-linejoin="round"/>
<path d="M134.292 87.9561C136.8 87.9561 138.833 85.9634 138.833 83.5053C138.833 81.0471 136.8 79.0544 134.292 79.0544C131.783 79.0544 129.75 81.0471 129.75 83.5053C129.75 85.9634 131.783 87.9561 134.292 87.9561Z" stroke="white" stroke-width="3" stroke-linecap="round" stroke-linejoin="round"/>
<path d="M122.208 73.7665L138.833 69.3157" stroke="white" stroke-width="3" stroke-linecap="round" stroke-linejoin="round"/>
</g>
<defs>
<clipPath id="clip0_538_7359">
<rect width="230" height="142" fill="white"/>
</clipPath>
<clipPath id="clip1_538_7359">
<rect width="230" height="142" fill="white"/>
</clipPath>
</defs>
</svg>
