<svg width="230" height="142" viewBox="0 0 230 142" fill="none" xmlns="http://www.w3.org/2000/svg">
<g clip-path="url(#clip0_419_5101)">
<rect width="230" height="142" fill="#CA2355"/>
<g opacity="0.18" clip-path="url(#clip1_419_5101)">
<path d="M16.3333 22.6471H12.3115C10.4826 22.6471 9 24.1297 9 25.9585V25.9585C9 28.0489 10.913 29.6164 12.9626 29.2054L13.3876 29.1201C15.1006 28.7766 16.3333 27.2722 16.3333 25.525V13.9499C16.3333 11.3449 16.3333 10.0423 16.9701 9.05329C17.1355 8.7965 17.3297 8.55948 17.5489 8.34688C18.3935 7.52804 19.6706 7.27194 22.2248 6.75974L23.7906 6.44574C26.0011 6.00246 27.1063 5.78082 27.9887 6.00588C29.1353 6.29837 30.0936 7.08357 30.6058 8.15034C31 8.97119 31 10.0984 31 12.3529V12.3529M31 19.7059V22.5839C31 24.331 29.7673 25.8354 28.0543 26.179L27.6292 26.2642C25.5797 26.6752 23.6667 25.1077 23.6667 23.0174V23.0174C23.6667 21.1885 25.1493 19.7059 26.9781 19.7059H31ZM31 19.7059V12.3529M31 12.3529L16.3333 15.2941" stroke="#490F20" stroke-width="2"/>
<path d="M45.3333 21.6471H41.3115C39.4826 21.6471 38 23.1297 38 24.9585V24.9585C38 27.0489 39.913 28.6164 41.9626 28.2054L42.3876 28.1201C44.1006 27.7766 45.3333 26.2722 45.3333 24.525V12.9499C45.3333 10.3449 45.3333 9.04235 45.9701 8.05329C46.1355 7.7965 46.3297 7.55948 46.5489 7.34688C47.3935 6.52804 48.6706 6.27194 51.2248 5.75974L52.7906 5.44574C55.0011 5.00246 56.1063 4.78082 56.9887 5.00588C58.1353 5.29837 59.0936 6.08357 59.6058 7.15034C60 7.97119 60 9.09844 60 11.3529V11.3529M60 18.7059V21.5839C60 23.331 58.7673 24.8354 57.0543 25.179L56.6292 25.2642C54.5797 25.6752 52.6667 24.1077 52.6667 22.0174V22.0174C52.6667 20.1885 54.1493 18.7059 55.9781 18.7059H60ZM60 18.7059V11.3529M60 11.3529L45.3333 14.2941" stroke="#490F20" stroke-width="2"/>
<path d="M74.3333 22.6471H70.3115C68.4826 22.6471 67 24.1297 67 25.9585V25.9585C67 28.0489 68.913 29.6164 70.9626 29.2054L71.3876 29.1201C73.1006 28.7766 74.3333 27.2722 74.3333 25.525V13.9499C74.3333 11.3449 74.3333 10.0423 74.9701 9.05329C75.1355 8.7965 75.3297 8.55948 75.5489 8.34688C76.3935 7.52804 77.6706 7.27194 80.2248 6.75974L81.7906 6.44574C84.0011 6.00246 85.1063 5.78082 85.9887 6.00588C87.1353 6.29837 88.0936 7.08357 88.6058 8.15034C89 8.97119 89 10.0984 89 12.3529V12.3529M89 19.7059V22.5839C89 24.331 87.7673 25.8354 86.0543 26.179L85.6292 26.2642C83.5797 26.6752 81.6667 25.1077 81.6667 23.0174V23.0174C81.6667 21.1885 83.1493 19.7059 84.9781 19.7059H89ZM89 19.7059V12.3529M89 12.3529L74.3333 15.2941" stroke="#490F20" stroke-width="2"/>
<path d="M103.333 21.6471H99.3115C97.4826 21.6471 96 23.1297 96 24.9585V24.9585C96 27.0489 97.913 28.6164 99.9626 28.2054L100.388 28.1201C102.101 27.7766 103.333 26.2722 103.333 24.525V12.9499C103.333 10.3449 103.333 9.04235 103.97 8.05329C104.135 7.7965 104.33 7.55948 104.549 7.34688C105.393 6.52804 106.671 6.27194 109.225 5.75974L110.791 5.44574C113.001 5.00246 114.106 4.78082 114.989 5.00588C116.135 5.29837 117.094 6.08357 117.606 7.15034C118 7.97119 118 9.09844 118 11.3529V11.3529M118 18.7059V21.5839C118 23.331 116.767 24.8354 115.054 25.179L114.629 25.2642C112.58 25.6752 110.667 24.1077 110.667 22.0174V22.0174C110.667 20.1885 112.149 18.7059 113.978 18.7059H118ZM118 18.7059V11.3529M118 11.3529L103.333 14.2941" stroke="#490F20" stroke-width="2"/>
<path d="M132.333 21.6471H128.311C126.483 21.6471 125 23.1297 125 24.9585V24.9585C125 27.0489 126.913 28.6164 128.963 28.2054L129.388 28.1201C131.101 27.7766 132.333 26.2722 132.333 24.525V12.9499C132.333 10.3449 132.333 9.04235 132.97 8.05329C133.135 7.7965 133.33 7.55948 133.549 7.34688C134.393 6.52804 135.671 6.27194 138.225 5.75974L139.791 5.44574C142.001 5.00246 143.106 4.78082 143.989 5.00588C145.135 5.29837 146.094 6.08357 146.606 7.15034C147 7.97119 147 9.09844 147 11.3529V11.3529M147 18.7059V21.5839C147 23.331 145.767 24.8354 144.054 25.179L143.629 25.2642C141.58 25.6752 139.667 24.1077 139.667 22.0174V22.0174C139.667 20.1885 141.149 18.7059 142.978 18.7059H147ZM147 18.7059V11.3529M147 11.3529L132.333 14.2941" stroke="#490F20" stroke-width="2"/>
<path d="M161.333 22.6471H157.311C155.483 22.6471 154 24.1297 154 25.9585V25.9585C154 28.0489 155.913 29.6164 157.963 29.2054L158.388 29.1201C160.101 28.7766 161.333 27.2722 161.333 25.525V13.9499C161.333 11.3449 161.333 10.0423 161.97 9.05329C162.135 8.7965 162.33 8.55948 162.549 8.34688C163.393 7.52804 164.671 7.27194 167.225 6.75974L168.791 6.44574C171.001 6.00246 172.106 5.78082 172.989 6.00588C174.135 6.29837 175.094 7.08357 175.606 8.15034C176 8.97119 176 10.0984 176 12.3529V12.3529M176 19.7059V22.5839C176 24.331 174.767 25.8354 173.054 26.179L172.629 26.2642C170.58 26.6752 168.667 25.1077 168.667 23.0174V23.0174C168.667 21.1885 170.149 19.7059 171.978 19.7059H176ZM176 19.7059V12.3529M176 12.3529L161.333 15.2941" stroke="#490F20" stroke-width="2"/>
<path d="M190.333 22.6471H186.311C184.483 22.6471 183 24.1297 183 25.9585V25.9585C183 28.0489 184.913 29.6164 186.963 29.2054L187.388 29.1201C189.101 28.7766 190.333 27.2722 190.333 25.525V13.9499C190.333 11.3449 190.333 10.0423 190.97 9.05329C191.135 8.7965 191.33 8.55948 191.549 8.34688C192.393 7.52804 193.671 7.27194 196.225 6.75974L197.791 6.44574C200.001 6.00246 201.106 5.78082 201.989 6.00588C203.135 6.29837 204.094 7.08357 204.606 8.15034C205 8.97119 205 10.0984 205 12.3529V12.3529M205 19.7059V22.5839C205 24.331 203.767 25.8354 202.054 26.179L201.629 26.2642C199.58 26.6752 197.667 25.1077 197.667 23.0174V23.0174C197.667 21.1885 199.149 19.7059 200.978 19.7059H205ZM205 19.7059V12.3529M205 12.3529L190.333 15.2941" stroke="#490F20" stroke-width="2"/>
<path d="M218.333 22.6471H214.311C212.483 22.6471 211 24.1297 211 25.9585V25.9585C211 28.0489 212.913 29.6164 214.963 29.2054L215.388 29.1201C217.101 28.7766 218.333 27.2722 218.333 25.525V13.9499C218.333 11.3449 218.333 10.0423 218.97 9.05329C219.135 8.7965 219.33 8.55948 219.549 8.34688C220.393 7.52804 221.671 7.27194 224.225 6.75974L225.791 6.44574C228.001 6.00246 229.106 5.78082 229.989 6.00588C231.135 6.29837 232.094 7.08357 232.606 8.15034C233 8.97119 233 10.0984 233 12.3529V12.3529M233 19.7059V22.5839C233 24.331 231.767 25.8354 230.054 26.179L229.629 26.2642C227.58 26.6752 225.667 25.1077 225.667 23.0174V23.0174C225.667 21.1885 227.149 19.7059 228.978 19.7059H233ZM233 19.7059V12.3529M233 12.3529L218.333 15.2941" stroke="#490F20" stroke-width="2"/>
<path d="M16.3333 49.6471H12.3115C10.4826 49.6471 9 51.1297 9 52.9585V52.9585C9 55.0489 10.913 56.6164 12.9626 56.2054L13.3876 56.1201C15.1006 55.7766 16.3333 54.2722 16.3333 52.525V40.9499C16.3333 38.3449 16.3333 37.0423 16.9701 36.0533C17.1355 35.7965 17.3297 35.5595 17.5489 35.3469C18.3935 34.528 19.6706 34.2719 22.2248 33.7597L23.7906 33.4457C26.0011 33.0025 27.1063 32.7808 27.9887 33.0059C29.1353 33.2984 30.0936 34.0836 30.6058 35.1503C31 35.9712 31 37.0984 31 39.3529V39.3529M31 46.7059V49.5839C31 51.331 29.7673 52.8354 28.0543 53.179L27.6292 53.2642C25.5797 53.6752 23.6667 52.1077 23.6667 50.0174V50.0174C23.6667 48.1885 25.1493 46.7059 26.9781 46.7059H31ZM31 46.7059V39.3529M31 39.3529L16.3333 42.2941" stroke="#490F20" stroke-width="2"/>
<path d="M45.3333 48.6471H41.3115C39.4826 48.6471 38 50.1297 38 51.9585V51.9585C38 54.0489 39.913 55.6164 41.9626 55.2054L42.3876 55.1201C44.1006 54.7766 45.3333 53.2722 45.3333 51.525V39.9499C45.3333 37.3449 45.3333 36.0423 45.9701 35.0533C46.1355 34.7965 46.3297 34.5595 46.5489 34.3469C47.3935 33.528 48.6706 33.2719 51.2248 32.7597L52.7906 32.4457C55.0011 32.0025 56.1063 31.7808 56.9887 32.0059C58.1353 32.2984 59.0936 33.0836 59.6058 34.1503C60 34.9712 60 36.0984 60 38.3529V38.3529M60 45.7059V48.5839C60 50.331 58.7673 51.8354 57.0543 52.179L56.6292 52.2642C54.5797 52.6752 52.6667 51.1077 52.6667 49.0174V49.0174C52.6667 47.1885 54.1493 45.7059 55.9781 45.7059H60ZM60 45.7059V38.3529M60 38.3529L45.3333 41.2941" stroke="#490F20" stroke-width="2"/>
<path d="M74.3333 49.6471H70.3115C68.4826 49.6471 67 51.1297 67 52.9585V52.9585C67 55.0489 68.913 56.6164 70.9626 56.2054L71.3876 56.1201C73.1006 55.7766 74.3333 54.2722 74.3333 52.525V40.9499C74.3333 38.3449 74.3333 37.0423 74.9701 36.0533C75.1355 35.7965 75.3297 35.5595 75.5489 35.3469C76.3935 34.528 77.6706 34.2719 80.2248 33.7597L81.7906 33.4457C84.0011 33.0025 85.1063 32.7808 85.9887 33.0059C87.1353 33.2984 88.0936 34.0836 88.6058 35.1503C89 35.9712 89 37.0984 89 39.3529V39.3529M89 46.7059V49.5839C89 51.331 87.7673 52.8354 86.0543 53.179L85.6292 53.2642C83.5797 53.6752 81.6667 52.1077 81.6667 50.0174V50.0174C81.6667 48.1885 83.1493 46.7059 84.9781 46.7059H89ZM89 46.7059V39.3529M89 39.3529L74.3333 42.2941" stroke="#490F20" stroke-width="2"/>
<path d="M103.333 48.6471H99.3115C97.4826 48.6471 96 50.1297 96 51.9585V51.9585C96 54.0489 97.913 55.6164 99.9626 55.2054L100.388 55.1201C102.101 54.7766 103.333 53.2722 103.333 51.525V39.9499C103.333 37.3449 103.333 36.0423 103.97 35.0533C104.135 34.7965 104.33 34.5595 104.549 34.3469C105.393 33.528 106.671 33.2719 109.225 32.7597L110.791 32.4457C113.001 32.0025 114.106 31.7808 114.989 32.0059C116.135 32.2984 117.094 33.0836 117.606 34.1503C118 34.9712 118 36.0984 118 38.3529V38.3529M118 45.7059V48.5839C118 50.331 116.767 51.8354 115.054 52.179L114.629 52.2642C112.58 52.6752 110.667 51.1077 110.667 49.0174V49.0174C110.667 47.1885 112.149 45.7059 113.978 45.7059H118ZM118 45.7059V38.3529M118 38.3529L103.333 41.2941" stroke="#490F20" stroke-width="2"/>
<path d="M132.333 48.6471H128.311C126.483 48.6471 125 50.1297 125 51.9585V51.9585C125 54.0489 126.913 55.6164 128.963 55.2054L129.388 55.1201C131.101 54.7766 132.333 53.2722 132.333 51.525V39.9499C132.333 37.3449 132.333 36.0423 132.97 35.0533C133.135 34.7965 133.33 34.5595 133.549 34.3469C134.393 33.528 135.671 33.2719 138.225 32.7597L139.791 32.4457C142.001 32.0025 143.106 31.7808 143.989 32.0059C145.135 32.2984 146.094 33.0836 146.606 34.1503C147 34.9712 147 36.0984 147 38.3529V38.3529M147 45.7059V48.5839C147 50.331 145.767 51.8354 144.054 52.179L143.629 52.2642C141.58 52.6752 139.667 51.1077 139.667 49.0174V49.0174C139.667 47.1885 141.149 45.7059 142.978 45.7059H147ZM147 45.7059V38.3529M147 38.3529L132.333 41.2941" stroke="#490F20" stroke-width="2"/>
<path d="M161.333 49.6471H157.311C155.483 49.6471 154 51.1297 154 52.9585V52.9585C154 55.0489 155.913 56.6164 157.963 56.2054L158.388 56.1201C160.101 55.7766 161.333 54.2722 161.333 52.525V40.9499C161.333 38.3449 161.333 37.0423 161.97 36.0533C162.135 35.7965 162.33 35.5595 162.549 35.3469C163.393 34.528 164.671 34.2719 167.225 33.7597L168.791 33.4457C171.001 33.0025 172.106 32.7808 172.989 33.0059C174.135 33.2984 175.094 34.0836 175.606 35.1503C176 35.9712 176 37.0984 176 39.3529V39.3529M176 46.7059V49.5839C176 51.331 174.767 52.8354 173.054 53.179L172.629 53.2642C170.58 53.6752 168.667 52.1077 168.667 50.0174V50.0174C168.667 48.1885 170.149 46.7059 171.978 46.7059H176ZM176 46.7059V39.3529M176 39.3529L161.333 42.2941" stroke="#490F20" stroke-width="2"/>
<path d="M190.333 49.6471H186.311C184.483 49.6471 183 51.1297 183 52.9585V52.9585C183 55.0489 184.913 56.6164 186.963 56.2054L187.388 56.1201C189.101 55.7766 190.333 54.2722 190.333 52.525V40.9499C190.333 38.3449 190.333 37.0423 190.97 36.0533C191.135 35.7965 191.33 35.5595 191.549 35.3469C192.393 34.528 193.671 34.2719 196.225 33.7597L197.791 33.4457C200.001 33.0025 201.106 32.7808 201.989 33.0059C203.135 33.2984 204.094 34.0836 204.606 35.1503C205 35.9712 205 37.0984 205 39.3529V39.3529M205 46.7059V49.5839C205 51.331 203.767 52.8354 202.054 53.179L201.629 53.2642C199.58 53.6752 197.667 52.1077 197.667 50.0174V50.0174C197.667 48.1885 199.149 46.7059 200.978 46.7059H205ZM205 46.7059V39.3529M205 39.3529L190.333 42.2941" stroke="#490F20" stroke-width="2"/>
<path d="M218.333 49.6471H214.311C212.483 49.6471 211 51.1297 211 52.9585V52.9585C211 55.0489 212.913 56.6164 214.963 56.2054L215.388 56.1201C217.101 55.7766 218.333 54.2722 218.333 52.525V40.9499C218.333 38.3449 218.333 37.0423 218.97 36.0533C219.135 35.7965 219.33 35.5595 219.549 35.3469C220.393 34.528 221.671 34.2719 224.225 33.7597L225.791 33.4457C228.001 33.0025 229.106 32.7808 229.989 33.0059C231.135 33.2984 232.094 34.0836 232.606 35.1503C233 35.9712 233 37.0984 233 39.3529V39.3529M233 46.7059V49.5839C233 51.331 231.767 52.8354 230.054 53.179L229.629 53.2642C227.58 53.6752 225.667 52.1077 225.667 50.0174V50.0174C225.667 48.1885 227.149 46.7059 228.978 46.7059H233ZM233 46.7059V39.3529M233 39.3529L218.333 42.2941" stroke="#490F20" stroke-width="2"/>
<path d="M16.3333 76.6471H12.3115C10.4826 76.6471 9 78.1297 9 79.9585V79.9585C9 82.0489 10.913 83.6164 12.9626 83.2054L13.3876 83.1201C15.1006 82.7766 16.3333 81.2722 16.3333 79.525V67.9499C16.3333 65.3449 16.3333 64.0423 16.9701 63.0533C17.1355 62.7965 17.3297 62.5595 17.5489 62.3469C18.3935 61.528 19.6706 61.2719 22.2248 60.7597L23.7906 60.4457C26.0011 60.0025 27.1063 59.7808 27.9887 60.0059C29.1353 60.2984 30.0936 61.0836 30.6058 62.1503C31 62.9712 31 64.0984 31 66.3529V66.3529M31 73.7059V76.5839C31 78.331 29.7673 79.8354 28.0543 80.179L27.6292 80.2642C25.5797 80.6752 23.6667 79.1077 23.6667 77.0174V77.0174C23.6667 75.1885 25.1493 73.7059 26.9781 73.7059H31ZM31 73.7059V66.3529M31 66.3529L16.3333 69.2941" stroke="#490F20" stroke-width="2"/>
<path d="M45.3333 75.6471H41.3115C39.4826 75.6471 38 77.1297 38 78.9585V78.9585C38 81.0489 39.913 82.6164 41.9626 82.2054L42.3876 82.1201C44.1006 81.7766 45.3333 80.2722 45.3333 78.525V66.9499C45.3333 64.3449 45.3333 63.0423 45.9701 62.0533C46.1355 61.7965 46.3297 61.5595 46.5489 61.3469C47.3935 60.528 48.6706 60.2719 51.2248 59.7597L52.7906 59.4457C55.0011 59.0025 56.1063 58.7808 56.9887 59.0059C58.1353 59.2984 59.0936 60.0836 59.6058 61.1503C60 61.9712 60 63.0984 60 65.3529V65.3529M60 72.7059V75.5839C60 77.331 58.7673 78.8354 57.0543 79.179L56.6292 79.2642C54.5797 79.6752 52.6667 78.1077 52.6667 76.0174V76.0174C52.6667 74.1885 54.1493 72.7059 55.9781 72.7059H60ZM60 72.7059V65.3529M60 65.3529L45.3333 68.2941" stroke="#490F20" stroke-width="2"/>
<path d="M74.3333 76.6471H70.3115C68.4826 76.6471 67 78.1297 67 79.9585V79.9585C67 82.0489 68.913 83.6164 70.9626 83.2054L71.3876 83.1201C73.1006 82.7766 74.3333 81.2722 74.3333 79.525V67.9499C74.3333 65.3449 74.3333 64.0423 74.9701 63.0533C75.1355 62.7965 75.3297 62.5595 75.5489 62.3469C76.3935 61.528 77.6706 61.2719 80.2248 60.7597L81.7906 60.4457C84.0011 60.0025 85.1063 59.7808 85.9887 60.0059C87.1353 60.2984 88.0936 61.0836 88.6058 62.1503C89 62.9712 89 64.0984 89 66.3529V66.3529M89 73.7059V76.5839C89 78.331 87.7673 79.8354 86.0543 80.179L85.6292 80.2642C83.5797 80.6752 81.6667 79.1077 81.6667 77.0174V77.0174C81.6667 75.1885 83.1493 73.7059 84.9781 73.7059H89ZM89 73.7059V66.3529M89 66.3529L74.3333 69.2941" stroke="#490F20" stroke-width="2"/>
<path d="M103.333 75.6471H99.3115C97.4826 75.6471 96 77.1297 96 78.9585V78.9585C96 81.0489 97.913 82.6164 99.9626 82.2054L100.388 82.1201C102.101 81.7766 103.333 80.2722 103.333 78.525V66.9499C103.333 64.3449 103.333 63.0423 103.97 62.0533C104.135 61.7965 104.33 61.5595 104.549 61.3469C105.393 60.528 106.671 60.2719 109.225 59.7597L110.791 59.4457C113.001 59.0025 114.106 58.7808 114.989 59.0059C116.135 59.2984 117.094 60.0836 117.606 61.1503C118 61.9712 118 63.0984 118 65.3529V65.3529M118 72.7059V75.5839C118 77.331 116.767 78.8354 115.054 79.179L114.629 79.2642C112.58 79.6752 110.667 78.1077 110.667 76.0174V76.0174C110.667 74.1885 112.149 72.7059 113.978 72.7059H118ZM118 72.7059V65.3529M118 65.3529L103.333 68.2941" stroke="#490F20" stroke-width="2"/>
<path d="M132.333 75.6471H128.311C126.483 75.6471 125 77.1297 125 78.9585V78.9585C125 81.0489 126.913 82.6164 128.963 82.2054L129.388 82.1201C131.101 81.7766 132.333 80.2722 132.333 78.525V66.9499C132.333 64.3449 132.333 63.0423 132.97 62.0533C133.135 61.7965 133.33 61.5595 133.549 61.3469C134.393 60.528 135.671 60.2719 138.225 59.7597L139.791 59.4457C142.001 59.0025 143.106 58.7808 143.989 59.0059C145.135 59.2984 146.094 60.0836 146.606 61.1503C147 61.9712 147 63.0984 147 65.3529V65.3529M147 72.7059V75.5839C147 77.331 145.767 78.8354 144.054 79.179L143.629 79.2642C141.58 79.6752 139.667 78.1077 139.667 76.0174V76.0174C139.667 74.1885 141.149 72.7059 142.978 72.7059H147ZM147 72.7059V65.3529M147 65.3529L132.333 68.2941" stroke="#490F20" stroke-width="2"/>
<path d="M161.333 76.6471H157.311C155.483 76.6471 154 78.1297 154 79.9585V79.9585C154 82.0489 155.913 83.6164 157.963 83.2054L158.388 83.1201C160.101 82.7766 161.333 81.2722 161.333 79.525V67.9499C161.333 65.3449 161.333 64.0423 161.97 63.0533C162.135 62.7965 162.33 62.5595 162.549 62.3469C163.393 61.528 164.671 61.2719 167.225 60.7597L168.791 60.4457C171.001 60.0025 172.106 59.7808 172.989 60.0059C174.135 60.2984 175.094 61.0836 175.606 62.1503C176 62.9712 176 64.0984 176 66.3529V66.3529M176 73.7059V76.5839C176 78.331 174.767 79.8354 173.054 80.179L172.629 80.2642C170.58 80.6752 168.667 79.1077 168.667 77.0174V77.0174C168.667 75.1885 170.149 73.7059 171.978 73.7059H176ZM176 73.7059V66.3529M176 66.3529L161.333 69.2941" stroke="#490F20" stroke-width="2"/>
<path d="M190.333 76.6471H186.311C184.483 76.6471 183 78.1297 183 79.9585V79.9585C183 82.0489 184.913 83.6164 186.963 83.2054L187.388 83.1201C189.101 82.7766 190.333 81.2722 190.333 79.525V67.9499C190.333 65.3449 190.333 64.0423 190.97 63.0533C191.135 62.7965 191.33 62.5595 191.549 62.3469C192.393 61.528 193.671 61.2719 196.225 60.7597L197.791 60.4457C200.001 60.0025 201.106 59.7808 201.989 60.0059C203.135 60.2984 204.094 61.0836 204.606 62.1503C205 62.9712 205 64.0984 205 66.3529V66.3529M205 73.7059V76.5839C205 78.331 203.767 79.8354 202.054 80.179L201.629 80.2642C199.58 80.6752 197.667 79.1077 197.667 77.0174V77.0174C197.667 75.1885 199.149 73.7059 200.978 73.7059H205ZM205 73.7059V66.3529M205 66.3529L190.333 69.2941" stroke="#490F20" stroke-width="2"/>
<path d="M218.333 76.6471H214.311C212.483 76.6471 211 78.1297 211 79.9585V79.9585C211 82.0489 212.913 83.6164 214.963 83.2054L215.388 83.1201C217.101 82.7766 218.333 81.2722 218.333 79.525V67.9499C218.333 65.3449 218.333 64.0423 218.97 63.0533C219.135 62.7965 219.33 62.5595 219.549 62.3469C220.393 61.528 221.671 61.2719 224.225 60.7597L225.791 60.4457C228.001 60.0025 229.106 59.7808 229.989 60.0059C231.135 60.2984 232.094 61.0836 232.606 62.1503C233 62.9712 233 64.0984 233 66.3529V66.3529M233 73.7059V76.5839C233 78.331 231.767 79.8354 230.054 80.179L229.629 80.2642C227.58 80.6752 225.667 79.1077 225.667 77.0174V77.0174C225.667 75.1885 227.149 73.7059 228.978 73.7059H233ZM233 73.7059V66.3529M233 66.3529L218.333 69.2941" stroke="#490F20" stroke-width="2"/>
<path d="M16.3333 103.647H12.3115C10.4826 103.647 9 105.13 9 106.959V106.959C9 109.049 10.913 110.616 12.9626 110.205L13.3876 110.12C15.1006 109.777 16.3333 108.272 16.3333 106.525V94.9499C16.3333 92.3449 16.3333 91.0423 16.9701 90.0533C17.1355 89.7965 17.3297 89.5595 17.5489 89.3469C18.3935 88.528 19.6706 88.2719 22.2248 87.7597L23.7906 87.4457C26.0011 87.0025 27.1063 86.7808 27.9887 87.0059C29.1353 87.2984 30.0936 88.0836 30.6058 89.1503C31 89.9712 31 91.0984 31 93.3529V93.3529M31 100.706V103.584C31 105.331 29.7673 106.835 28.0543 107.179L27.6292 107.264C25.5797 107.675 23.6667 106.108 23.6667 104.017V104.017C23.6667 102.188 25.1493 100.706 26.9781 100.706H31ZM31 100.706V93.3529M31 93.3529L16.3333 96.2941" stroke="#490F20" stroke-width="2"/>
<path d="M45.3333 102.647H41.3115C39.4826 102.647 38 104.13 38 105.959V105.959C38 108.049 39.913 109.616 41.9626 109.205L42.3876 109.12C44.1006 108.777 45.3333 107.272 45.3333 105.525V93.9499C45.3333 91.3449 45.3333 90.0423 45.9701 89.0533C46.1355 88.7965 46.3297 88.5595 46.5489 88.3469C47.3935 87.528 48.6706 87.2719 51.2248 86.7597L52.7906 86.4457C55.0011 86.0025 56.1063 85.7808 56.9887 86.0059C58.1353 86.2984 59.0936 87.0836 59.6058 88.1503C60 88.9712 60 90.0984 60 92.3529V92.3529M60 99.7059V102.584C60 104.331 58.7673 105.835 57.0543 106.179L56.6292 106.264C54.5797 106.675 52.6667 105.108 52.6667 103.017V103.017C52.6667 101.188 54.1493 99.7059 55.9781 99.7059H60ZM60 99.7059V92.3529M60 92.3529L45.3333 95.2941" stroke="#490F20" stroke-width="2"/>
<path d="M74.3333 103.647H70.3115C68.4826 103.647 67 105.13 67 106.959V106.959C67 109.049 68.913 110.616 70.9626 110.205L71.3876 110.12C73.1006 109.777 74.3333 108.272 74.3333 106.525V94.9499C74.3333 92.3449 74.3333 91.0423 74.9701 90.0533C75.1355 89.7965 75.3297 89.5595 75.5489 89.3469C76.3935 88.528 77.6706 88.2719 80.2248 87.7597L81.7906 87.4457C84.0011 87.0025 85.1063 86.7808 85.9887 87.0059C87.1353 87.2984 88.0936 88.0836 88.6058 89.1503C89 89.9712 89 91.0984 89 93.3529V93.3529M89 100.706V103.584C89 105.331 87.7673 106.835 86.0543 107.179L85.6292 107.264C83.5797 107.675 81.6667 106.108 81.6667 104.017V104.017C81.6667 102.188 83.1493 100.706 84.9781 100.706H89ZM89 100.706V93.3529M89 93.3529L74.3333 96.2941" stroke="#490F20" stroke-width="2"/>
<path d="M103.333 102.647H99.3115C97.4826 102.647 96 104.13 96 105.959V105.959C96 108.049 97.913 109.616 99.9626 109.205L100.388 109.12C102.101 108.777 103.333 107.272 103.333 105.525V93.9499C103.333 91.3449 103.333 90.0423 103.97 89.0533C104.135 88.7965 104.33 88.5595 104.549 88.3469C105.393 87.528 106.671 87.2719 109.225 86.7597L110.791 86.4457C113.001 86.0025 114.106 85.7808 114.989 86.0059C116.135 86.2984 117.094 87.0836 117.606 88.1503C118 88.9712 118 90.0984 118 92.3529V92.3529M118 99.7059V102.584C118 104.331 116.767 105.835 115.054 106.179L114.629 106.264C112.58 106.675 110.667 105.108 110.667 103.017V103.017C110.667 101.188 112.149 99.7059 113.978 99.7059H118ZM118 99.7059V92.3529M118 92.3529L103.333 95.2941" stroke="#490F20" stroke-width="2"/>
<path d="M132.333 102.647H128.311C126.483 102.647 125 104.13 125 105.959V105.959C125 108.049 126.913 109.616 128.963 109.205L129.388 109.12C131.101 108.777 132.333 107.272 132.333 105.525V93.9499C132.333 91.3449 132.333 90.0423 132.97 89.0533C133.135 88.7965 133.33 88.5595 133.549 88.3469C134.393 87.528 135.671 87.2719 138.225 86.7597L139.791 86.4457C142.001 86.0025 143.106 85.7808 143.989 86.0059C145.135 86.2984 146.094 87.0836 146.606 88.1503C147 88.9712 147 90.0984 147 92.3529V92.3529M147 99.7059V102.584C147 104.331 145.767 105.835 144.054 106.179L143.629 106.264C141.58 106.675 139.667 105.108 139.667 103.017V103.017C139.667 101.188 141.149 99.7059 142.978 99.7059H147ZM147 99.7059V92.3529M147 92.3529L132.333 95.2941" stroke="#490F20" stroke-width="2"/>
<path d="M161.333 103.647H157.311C155.483 103.647 154 105.13 154 106.959V106.959C154 109.049 155.913 110.616 157.963 110.205L158.388 110.12C160.101 109.777 161.333 108.272 161.333 106.525V94.9499C161.333 92.3449 161.333 91.0423 161.97 90.0533C162.135 89.7965 162.33 89.5595 162.549 89.3469C163.393 88.528 164.671 88.2719 167.225 87.7597L168.791 87.4457C171.001 87.0025 172.106 86.7808 172.989 87.0059C174.135 87.2984 175.094 88.0836 175.606 89.1503C176 89.9712 176 91.0984 176 93.3529V93.3529M176 100.706V103.584C176 105.331 174.767 106.835 173.054 107.179L172.629 107.264C170.58 107.675 168.667 106.108 168.667 104.017V104.017C168.667 102.188 170.149 100.706 171.978 100.706H176ZM176 100.706V93.3529M176 93.3529L161.333 96.2941" stroke="#490F20" stroke-width="2"/>
<path d="M190.333 103.647H186.311C184.483 103.647 183 105.13 183 106.959V106.959C183 109.049 184.913 110.616 186.963 110.205L187.388 110.12C189.101 109.777 190.333 108.272 190.333 106.525V94.9499C190.333 92.3449 190.333 91.0423 190.97 90.0533C191.135 89.7965 191.33 89.5595 191.549 89.3469C192.393 88.528 193.671 88.2719 196.225 87.7597L197.791 87.4457C200.001 87.0025 201.106 86.7808 201.989 87.0059C203.135 87.2984 204.094 88.0836 204.606 89.1503C205 89.9712 205 91.0984 205 93.3529V93.3529M205 100.706V103.584C205 105.331 203.767 106.835 202.054 107.179L201.629 107.264C199.58 107.675 197.667 106.108 197.667 104.017V104.017C197.667 102.188 199.149 100.706 200.978 100.706H205ZM205 100.706V93.3529M205 93.3529L190.333 96.2941" stroke="#490F20" stroke-width="2"/>
<path d="M218.333 103.647H214.311C212.483 103.647 211 105.13 211 106.959V106.959C211 109.049 212.913 110.616 214.963 110.205L215.388 110.12C217.101 109.777 218.333 108.272 218.333 106.525V94.9499C218.333 92.3449 218.333 91.0423 218.97 90.0533C219.135 89.7965 219.33 89.5595 219.549 89.3469C220.393 88.528 221.671 88.2719 224.225 87.7597L225.791 87.4457C228.001 87.0025 229.106 86.7808 229.989 87.0059C231.135 87.2984 232.094 88.0836 232.606 89.1503C233 89.9712 233 91.0984 233 93.3529V93.3529M233 100.706V103.584C233 105.331 231.767 106.835 230.054 107.179L229.629 107.264C227.58 107.675 225.667 106.108 225.667 104.017V104.017C225.667 102.188 227.149 100.706 228.978 100.706H233ZM233 100.706V93.3529M233 93.3529L218.333 96.2941" stroke="#490F20" stroke-width="2"/>
<path d="M16.3333 130.647H12.3115C10.4826 130.647 9 132.13 9 133.959V133.959C9 136.049 10.913 137.616 12.9626 137.205L13.3876 137.12C15.1006 136.777 16.3333 135.272 16.3333 133.525V121.95C16.3333 119.345 16.3333 118.042 16.9701 117.053C17.1355 116.796 17.3297 116.559 17.5489 116.347C18.3935 115.528 19.6706 115.272 22.2248 114.76L23.7906 114.446C26.0011 114.002 27.1063 113.781 27.9887 114.006C29.1353 114.298 30.0936 115.084 30.6058 116.15C31 116.971 31 118.098 31 120.353V120.353M31 127.706V130.584C31 132.331 29.7673 133.835 28.0543 134.179L27.6292 134.264C25.5797 134.675 23.6667 133.108 23.6667 131.017V131.017C23.6667 129.188 25.1493 127.706 26.9781 127.706H31ZM31 127.706V120.353M31 120.353L16.3333 123.294" stroke="#490F20" stroke-width="2"/>
<path d="M45.3333 129.647H41.3115C39.4826 129.647 38 131.13 38 132.959V132.959C38 135.049 39.913 136.616 41.9626 136.205L42.3876 136.12C44.1006 135.777 45.3333 134.272 45.3333 132.525V120.95C45.3333 118.345 45.3333 117.042 45.9701 116.053C46.1355 115.796 46.3297 115.559 46.5489 115.347C47.3935 114.528 48.6706 114.272 51.2248 113.76L52.7906 113.446C55.0011 113.002 56.1063 112.781 56.9887 113.006C58.1353 113.298 59.0936 114.084 59.6058 115.15C60 115.971 60 117.098 60 119.353V119.353M60 126.706V129.584C60 131.331 58.7673 132.835 57.0543 133.179L56.6292 133.264C54.5797 133.675 52.6667 132.108 52.6667 130.017V130.017C52.6667 128.188 54.1493 126.706 55.9781 126.706H60ZM60 126.706V119.353M60 119.353L45.3333 122.294" stroke="#490F20" stroke-width="2"/>
<path d="M74.3333 130.647H70.3115C68.4826 130.647 67 132.13 67 133.959V133.959C67 136.049 68.913 137.616 70.9626 137.205L71.3876 137.12C73.1006 136.777 74.3333 135.272 74.3333 133.525V121.95C74.3333 119.345 74.3333 118.042 74.9701 117.053C75.1355 116.796 75.3297 116.559 75.5489 116.347C76.3935 115.528 77.6706 115.272 80.2248 114.76L81.7906 114.446C84.0011 114.002 85.1063 113.781 85.9887 114.006C87.1353 114.298 88.0936 115.084 88.6058 116.15C89 116.971 89 118.098 89 120.353V120.353M89 127.706V130.584C89 132.331 87.7673 133.835 86.0543 134.179L85.6292 134.264C83.5797 134.675 81.6667 133.108 81.6667 131.017V131.017C81.6667 129.188 83.1493 127.706 84.9781 127.706H89ZM89 127.706V120.353M89 120.353L74.3333 123.294" stroke="#490F20" stroke-width="2"/>
<path d="M103.333 129.647H99.3115C97.4826 129.647 96 131.13 96 132.959V132.959C96 135.049 97.913 136.616 99.9626 136.205L100.388 136.12C102.101 135.777 103.333 134.272 103.333 132.525V120.95C103.333 118.345 103.333 117.042 103.97 116.053C104.135 115.796 104.33 115.559 104.549 115.347C105.393 114.528 106.671 114.272 109.225 113.76L110.791 113.446C113.001 113.002 114.106 112.781 114.989 113.006C116.135 113.298 117.094 114.084 117.606 115.15C118 115.971 118 117.098 118 119.353V119.353M118 126.706V129.584C118 131.331 116.767 132.835 115.054 133.179L114.629 133.264C112.58 133.675 110.667 132.108 110.667 130.017V130.017C110.667 128.188 112.149 126.706 113.978 126.706H118ZM118 126.706V119.353M118 119.353L103.333 122.294" stroke="#490F20" stroke-width="2"/>
<path d="M132.333 129.647H128.311C126.483 129.647 125 131.13 125 132.959V132.959C125 135.049 126.913 136.616 128.963 136.205L129.388 136.12C131.101 135.777 132.333 134.272 132.333 132.525V120.95C132.333 118.345 132.333 117.042 132.97 116.053C133.135 115.796 133.33 115.559 133.549 115.347C134.393 114.528 135.671 114.272 138.225 113.76L139.791 113.446C142.001 113.002 143.106 112.781 143.989 113.006C145.135 113.298 146.094 114.084 146.606 115.15C147 115.971 147 117.098 147 119.353V119.353M147 126.706V129.584C147 131.331 145.767 132.835 144.054 133.179L143.629 133.264C141.58 133.675 139.667 132.108 139.667 130.017V130.017C139.667 128.188 141.149 126.706 142.978 126.706H147ZM147 126.706V119.353M147 119.353L132.333 122.294" stroke="#490F20" stroke-width="2"/>
<path d="M161.333 130.647H157.311C155.483 130.647 154 132.13 154 133.959V133.959C154 136.049 155.913 137.616 157.963 137.205L158.388 137.12C160.101 136.777 161.333 135.272 161.333 133.525V121.95C161.333 119.345 161.333 118.042 161.97 117.053C162.135 116.796 162.33 116.559 162.549 116.347C163.393 115.528 164.671 115.272 167.225 114.76L168.791 114.446C171.001 114.002 172.106 113.781 172.989 114.006C174.135 114.298 175.094 115.084 175.606 116.15C176 116.971 176 118.098 176 120.353V120.353M176 127.706V130.584C176 132.331 174.767 133.835 173.054 134.179L172.629 134.264C170.58 134.675 168.667 133.108 168.667 131.017V131.017C168.667 129.188 170.149 127.706 171.978 127.706H176ZM176 127.706V120.353M176 120.353L161.333 123.294" stroke="#490F20" stroke-width="2"/>
<path d="M190.333 130.647H186.311C184.483 130.647 183 132.13 183 133.959V133.959C183 136.049 184.913 137.616 186.963 137.205L187.388 137.12C189.101 136.777 190.333 135.272 190.333 133.525V121.95C190.333 119.345 190.333 118.042 190.97 117.053C191.135 116.796 191.33 116.559 191.549 116.347C192.393 115.528 193.671 115.272 196.225 114.76L197.791 114.446C200.001 114.002 201.106 113.781 201.989 114.006C203.135 114.298 204.094 115.084 204.606 116.15C205 116.971 205 118.098 205 120.353V120.353M205 127.706V130.584C205 132.331 203.767 133.835 202.054 134.179L201.629 134.264C199.58 134.675 197.667 133.108 197.667 131.017V131.017C197.667 129.188 199.149 127.706 200.978 127.706H205ZM205 127.706V120.353M205 120.353L190.333 123.294" stroke="#490F20" stroke-width="2"/>
<path d="M218.333 130.647H214.311C212.483 130.647 211 132.13 211 133.959V133.959C211 136.049 212.913 137.616 214.963 137.205L215.388 137.12C217.101 136.777 218.333 135.272 218.333 133.525V121.95C218.333 119.345 218.333 118.042 218.97 117.053C219.135 116.796 219.33 116.559 219.549 116.347C220.393 115.528 221.671 115.272 224.225 114.76L225.791 114.446C228.001 114.002 229.106 113.781 229.989 114.006C231.135 114.298 232.094 115.084 232.606 116.15C233 116.971 233 118.098 233 120.353V120.353M233 127.706V130.584C233 132.331 231.767 133.835 230.054 134.179L229.629 134.264C227.58 134.675 225.667 133.108 225.667 131.017V131.017C225.667 129.188 227.149 127.706 228.978 127.706H233ZM233 127.706V120.353M233 120.353L218.333 123.294" stroke="#490F20" stroke-width="2"/>
</g>
<path d="M104.667 80.4706H97.1015C97.0073 80.4706 96.9602 80.4706 96.9203 80.4711C93.669 80.5143 91.0437 83.1396 91.0005 86.3909C91 86.4307 91 86.4778 91 86.5721V86.5721C91 86.6843 91 86.7404 91.0007 86.7852C91.0561 90.4935 94.4289 93.264 98.0773 92.5981C98.1214 92.59 98.1764 92.5791 98.2865 92.5573L99.1605 92.3843C99.7957 92.2585 100.113 92.1956 100.388 92.1134C102.726 91.4133 104.407 89.367 104.639 86.9378C104.667 86.6523 104.667 86.3286 104.667 85.6811V63.2688C104.667 58.5509 104.667 56.192 106.03 54.5319C107.394 52.8718 109.708 52.4136 114.336 51.4973L118.728 50.6277C124.35 49.5147 127.16 48.9582 129.173 50.2119C129.616 50.4883 130.022 50.8215 130.379 51.2031C132 52.9336 132 55.7988 132 61.5294V61.5294M132 75.0588V80.2693C132 80.9168 132 81.2406 131.973 81.526C131.74 83.9552 130.059 86.0015 127.721 86.7016C127.447 86.7839 127.129 86.8468 126.494 86.9725L125.62 87.1456C125.51 87.1674 125.455 87.1783 125.411 87.1863C121.762 87.8522 118.389 85.0817 118.334 81.3734C118.333 81.3286 118.333 81.2725 118.333 81.1603V81.1603C118.333 81.0661 118.333 81.019 118.334 80.9791C118.377 77.7278 121.002 75.1025 124.254 75.0594C124.293 75.0588 124.341 75.0588 124.435 75.0588H132ZM132 75.0588V61.5294M132 61.5294L104.667 66.9412" stroke="white" stroke-width="4"/>
<path d="M115.321 116.162C142.009 116.162 163.643 95.7554 163.643 70.5812C163.643 45.4074 142.009 25 115.321 25C88.6342 25 67 45.4074 67 70.5812C67 95.7554 88.6342 116.162 115.321 116.162Z" stroke="white" stroke-width="8" stroke-linecap="round" stroke-linejoin="round"/>
</g>
<defs>
<clipPath id="clip0_419_5101">
<rect width="230" height="142" fill="white"/>
</clipPath>
<clipPath id="clip1_419_5101">
<rect width="230" height="142" fill="white"/>
</clipPath>
</defs>
</svg>
